<?xml version="1.0" encoding="utf-8"?>
<!-- Generator: Adobe Illustrator 21.0.0, SVG Export Plug-In . SVG Version: 6.00 Build 0)  -->
<svg version="1.1" id="Layer_1" xmlns="http://www.w3.org/2000/svg" xmlns:xlink="http://www.w3.org/1999/xlink" x="0px" y="0px"
	 viewBox="0 0 3600 1884" style="enable-background:new 0 0 3600 1884;" xml:space="preserve">
<style type="text/css">
	.st0{fill:#56B1DA;}
	.st1{fill:#3D7E9C;}
	.st2{fill:#3AC5C9;}
	.st3{fill:#49E1E6;}
	.st4{fill:#BCF0F2;}
	.st5{fill:#458FB0;}
	.st6{fill:#D0F1F2;}
	.st7{fill:#FFFFFF;}
	.st8{fill:#292B3B;}
	.st9{fill:#FEB0AF;}
	.st10{fill:#1A1C2E;}
	.st11{fill:none;stroke:#3B3E54;stroke-width:9;stroke-linecap:round;stroke-linejoin:round;stroke-miterlimit:10;}
	.st12{fill:#2F7D80;}
	.st13{fill:#369094;}
	.st14{fill:#FFC4C2;}
	.st15{fill:#3B3E54;}
	.st16{fill:#FF9F9C;}
	.st17{fill:#186587;}
	.st18{fill:#1A1A1A;}
	.st19{fill:none;stroke:#FF9F9C;stroke-width:9;stroke-miterlimit:10;}
	.st20{fill:#9FA2C4;}
	.st21{fill:#C5C8E6;}
	.st22{fill:#FFC0BD;}
	.st23{fill:#80839E;}
	.st24{fill:#8F92B0;}
	.st25{fill:#2A6682;}
	.st26{fill:#FFB0AD;}
	.st27{opacity:0.4;fill:#FFFFFF;}
	.st28{fill:#FFD3D1;}
	.st29{fill:#FFB6B3;}
	.st30{fill:none;stroke:#56B1DA;stroke-width:10.0013;stroke-linecap:round;stroke-linejoin:round;stroke-miterlimit:10;}
	.st31{fill:#6BE0E3;}
	.st32{fill:none;stroke:#FF7975;stroke-width:10.0013;stroke-linecap:round;stroke-linejoin:round;stroke-miterlimit:10;}
	.st33{fill:#7FC9EB;}
</style>
<g>
	<path class="st0" d="M3295.6,1884c18.1-57.6,27.9-118.9,27.9-182.4c0-277.3-185.8-511.2-439.8-584c18-43.6,27.9-91.3,27.9-141.3
		c0-204.7-165.9-370.6-370.6-370.6c-35.2,0-69.2,4.9-101.5,14.1c-137-220.4-381.3-367.2-660-367.2c-360.3,0-663.3,245.4-751,578.2
		c-417.6,12.9-752.2,355.4-752.2,776.1c0,97.7,18.1,191.1,51,277.2H3295.6z"/>
	<g>
		<path class="st1" d="M1090.7,1371.1c-155.4,0-286.5,104.3-327.2,246.7h654.4C1377.2,1475.3,1246.1,1371.1,1090.7,1371.1z"/>
		<path class="st1" d="M1983.3,1371.1c-155.4,0-286.5,104.3-327.2,246.7h654.4C2269.8,1475.3,2138.7,1371.1,1983.3,1371.1z"/>
		<path class="st1" d="M1558,1265.4c-222,0-409.3,148.9-467.3,352.3h934.7C1967.3,1414.3,1780,1265.4,1558,1265.4z"/>
	</g>
	<g>
		<path class="st2" d="M3051.2,1475.7c-118.3,70.6-261.5,48.6-261.5,48.6l428.6-255.6C3218.2,1268.6,3169.5,1405.1,3051.2,1475.7z"
			/>
		<path class="st3" d="M3218.2,1268.6l-428.6,255.6c0,0,48.7-136.4,167-207C3075,1246.7,3218.2,1268.6,3218.2,1268.6z"/>
	</g>
	<g>
		<path class="st2" d="M2957.3,1313.4c-41.6,131.4-163.3,210-163.3,210l150.8-475.7C2944.8,1047.7,2998.9,1182,2957.3,1313.4z"/>
		<path class="st3" d="M2944.8,1047.7L2794,1523.4c0,0-54.2-134.4-12.5-265.7S2944.8,1047.7,2944.8,1047.7z"/>
	</g>
	<g>
		<path class="st4" d="M2558.9,1495.8c-69.7,0-128.4,46.7-146.6,110.5h293.2C2687.3,1542.5,2628.6,1495.8,2558.9,1495.8z"/>
		<path class="st4" d="M2958.9,1495.8c-69.7,0-128.4,46.7-146.6,110.5h293.2C3087.3,1542.5,3028.6,1495.8,2958.9,1495.8z"/>
		<path class="st4" d="M2768.4,1448.5c-99.5,0-183.4,66.7-209.4,157.9h418.8C2951.8,1515.2,2867.8,1448.5,2768.4,1448.5z"/>
	</g>
	<g>
		<g>
			<path class="st5" d="M2638.1,1709.9H961.9c-31,0-56.1-25.1-56.1-56.1s25.1-56.1,56.1-56.1h1676.2c31,0,56.1,25.1,56.1,56.1
				S2669.1,1709.9,2638.1,1709.9z"/>
		</g>
	</g>
	<g>
		<path class="st6" d="M409.9,205.2c-108.1,0-199.3,72.5-227.5,171.5h455.1C609.2,277.7,518,205.2,409.9,205.2z"/>
		<path class="st6" d="M1030.7,205.2c-108.1,0-199.3,72.5-227.5,171.5h455.1C1230,277.7,1138.8,205.2,1030.7,205.2z"/>
		<path class="st6" d="M735,131.7c-154.4,0-284.6,103.6-325,245h650C1019.6,235.3,889.4,131.7,735,131.7z"/>
	</g>
	<g>
		<path class="st7" d="M446.4,352.1c-66.8,0-123.1,44.8-140.6,106H587C569.5,396.9,513.2,352.1,446.4,352.1z"/>
		<path class="st7" d="M829.9,352.1c-66.8,0-123.1,44.8-140.6,106h281.1C953,396.9,896.7,352.1,829.9,352.1z"/>
		<path class="st7" d="M647.2,306.7c-95.4,0-175.8,64-200.8,151.4H848C823,370.7,742.6,306.7,647.2,306.7z"/>
	</g>
	<g>
		<path class="st6" d="M3042,472.7c-54.5,0-100.4,36.5-114.7,86.4h229.3C3142.4,509.2,3096.5,472.7,3042,472.7z"/>
		<path class="st6" d="M3354.8,472.7c-54.5,0-100.4,36.5-114.7,86.4h229.3C3455.2,509.2,3409.3,472.7,3354.8,472.7z"/>
		<path class="st6" d="M3205.8,435.6c-77.8,0-143.4,52.2-163.8,123.5h327.5C3349.2,487.8,3283.6,435.6,3205.8,435.6z"/>
	</g>
	<g>
		<path class="st7" d="M1339.3,1012.8c0,0-98.3-33.4-107.2-58c-8.9-24.6,88.3-3.4,128.9,44.5L1339.3,1012.8z"/>
		<g>
			<path class="st8" d="M1314.2,1011.3c-11.6-13.8,23.4-26.8,34.7-41.4c247.7,258.7-148.7,474.7-194.8,99c-7.1-57.5-4-39.1,33.7-50
				c3.9-5.4,2.8-5.1,0,0c37.7-10.9,46.5,3.4,46.5,40.2C1234,1299.6,1486.1,1214.8,1314.2,1011.3z"/>
		</g>
		<g>
			<path class="st8" d="M1391,1653.8h-191.3c-7-51.2-17.3-107.1-31-168.2c55.3-14.2,105.7-51.2,161.7-62.7
				C1359.3,1500.5,1384.9,1581.1,1391,1653.8z"/>
		</g>
		<g>
			<path class="st9" d="M1145.8,1515.7c26.1-11.4,54.1-18.9,120.7-24.3c0.5,0,0.9-0.1,1.4-0.1c49.1-3.8,79.6-55.2,58.9-99.9
				c-83.9-181.4-101.1-280.8-94.3-341.2c4-35.2-11.1-69.9-40-90.4l-11.3-8c-52.4-37.2-125.9-6.5-135.8,57.1
				c-3.3,21.2-5.5,45.5-6,72.7C1037.6,1211.1,1069.8,1347,1145.8,1515.7z"/>
		</g>
		<g>
			<path class="st7" d="M1084.8,853.4c24.9,55.1,83.4,82.5,117.1,67.3c33.7-15.2,29.8-67.2,4.9-122.3
				c-24.9-55.1-64.8-70.9-98.5-55.7C1074.6,757.9,1060,798.3,1084.8,853.4z"/>
			<path class="st7" d="M1094.7,855l62.9-8.5c1.2,8.6,10.9,90.7,8.8,121.9c-2,9.6-17.6,14.6-34.8,11.1c-15.5-3.2-27-12.1-27.8-20.9
				l-0.1,0C1105,939.9,1098.7,885.1,1094.7,855z"/>
			<path class="st10" d="M1212.9,860.8c-6.4-0.6-13.3-1.1-18.6,2.5c-1.9,1.3-3.4,3-5.4,4.2c-1.4,0.8-2.9,1.3-4.3,2
				c-3.1,1.6-5.3,4.5-7.5,7.2c-3.1,3.9-10.4,14.8-1.2,16.3c2.1,0.3,4.3-0.3,6.2-1.2c6.3-3.2,9.9-10.2,16.1-13.7
				c1.1-0.6,2.3-1.1,3.5-1.6c3.8-1.6,7.6-3.2,11.5-4.4c1.8-0.5,3.6-1,5.1-2.1c1.5-1.1,2.7-2.9,2.4-4.7
				C1220.1,862.2,1216.1,861.2,1212.9,860.8z"/>
			<path class="st10" d="M1091.5,867.7c0,0,18.2-2.8,9.1-21.2c-9.1-18.5-11.9-39.2-5.9-39.2c5.9,0,19.2,7.4,23.3-6.6
				c4.1-14.1,10.8-3.3,22.3-8.3s57.9-12.6,62.1-38.6c4.1-26-3.1-39.2-16.1-35.1c-12.9,4.1-7.7-6.1-21.5-3.9
				c-13.8,2.2-14.7,8.9-34.2,12.1s-71.3,20.2-64.8,48.6c0,0-22.4,11.8-13.3,35C1061.7,833.8,1080,881.6,1091.5,867.7z"/>
			<path class="st7" d="M1068.4,879.5c5.8,12.8,25.9,23.5,35.2,19.3c9.3-4.2,6.9-15.6,1.1-28.5c-5.8-12.8-18.7-21.4-28-17.2
				C1067.4,857.3,1062.6,866.7,1068.4,879.5z"/>
			<path class="st10" d="M1109,880.6c0,0-7.9-1.8-1.5,8.9c6.4,10.7,46.7,45.7,86.1,41.7c39.4-4,38.7-41.7,37.5-49.2
				c-1.2-7.5-5-11.2-9.6,6.2c-4.6,17.4-21.2,31.2-39.4,30.2c-18.2-1-50.2-17-59.3-24.2C1114,887.4,1109,880.6,1109,880.6z"/>
		</g>
		<path class="st8" d="M1022.6,1078.5c0.4-27.3-4-41.9-0.7-63.1c7.8-50.3,30.5-81.1,76-72.9c-2,97.8,212.5,648.8,211.1,648.9
			c-66.6,5.3-104.4,16.9-130.5,28.3C1102.6,1451,1020.7,1208,1022.6,1078.5z"/>
		<path class="st8" d="M1167.6,936.4c12,2.2,23.8,6.8,34.7,14.6l11.3,8c28.9,20.5,43.9,55.1,40,90.4c-8,70.7-14.7,156.5,76,348.1
			C1266.3,1379.6,1165.6,1034.3,1167.6,936.4z"/>
		<path class="st7" d="M1047.8,1365.6c0,0,98.7-32.5,120.6-18.2c21.9,14.3-68.5,55.8-129.8,42L1047.8,1365.6z"/>
		<g>
			<path class="st8" d="M1064.5,1351.2c-3.8,15.3-7.7,32.1-11.5,47.5c-268.7-83-310.9-297.4-30.2-415.6c57.9-24.4,73,58.3,27.3,73.8
				C784.8,1147,891,1267.6,1064.5,1351.2z"/>
		</g>
		<circle class="st8" cx="1153.2" cy="1044.9" r="6.3"/>
		<circle class="st8" cx="1166.7" cy="1098.1" r="6.3"/>
		<circle class="st8" cx="1180.7" cy="1148" r="6.3"/>
	</g>
	<g>
		<line class="st11" x1="706.8" y1="1623.2" x2="706.8" y2="1376.2"/>
		<line class="st11" x1="706.8" y1="1557.6" x2="735.9" y2="1528.4"/>
		<line class="st11" x1="706.8" y1="1528.5" x2="676.6" y2="1498.3"/>
		<line class="st11" x1="706.8" y1="1448.5" x2="688" y2="1429.8"/>
		<g>
			<path class="st12" d="M706.8,1287.1v134.1c0,0,28-30,28-67C734.8,1317.1,706.8,1287.1,706.8,1287.1z"/>
			<path class="st13" d="M678.8,1354.1c0,37,28,67,28,67v-134.1C706.8,1287.1,678.8,1317.1,678.8,1354.1z"/>
		</g>
		<g>
			<path class="st12" d="M682.9,1504.6l-94.3-94.3c0,0,1.4,40.8,27.5,66.9C642.1,1503.2,682.9,1504.6,682.9,1504.6z"/>
			<path class="st13" d="M655.4,1437.8c-26.1-26.1-66.9-27.5-66.9-27.5l94.3,94.3C682.9,1504.6,681.5,1463.8,655.4,1437.8z"/>
		</g>
		<line class="st11" x1="706.8" y1="1476.6" x2="721.2" y2="1462.2"/>
		<g>
			<path class="st12" d="M813.6,1369.8l-94.3,94.3c0,0,40.8-1.4,66.9-27.5C812.2,1410.6,813.6,1369.8,813.6,1369.8z"/>
			<path class="st13" d="M746.8,1397.3c-26.1,26.1-27.5,66.9-27.5,66.9l94.3-94.3C813.6,1369.8,772.8,1371.2,746.8,1397.3z"/>
		</g>
	</g>
	<path class="st7" d="M2067.5,978c16.5,0,29.9-13.4,29.9-29.9c0,16.5,13.4,29.9,29.9,29.9c-16.5,0-29.9,13.4-29.9,29.9
		C2097.4,991.4,2084,978,2067.5,978z"/>
	<path class="st7" d="M684.1,1167.2c16.5,0,29.9-13.4,29.9-29.9c0,16.5,13.4,29.9,29.9,29.9c-16.5,0-29.9,13.4-29.9,29.9
		C714,1180.6,700.6,1167.2,684.1,1167.2z"/>
	<circle class="st1" cx="1800" cy="529.3" r="343.4"/>
	<g>
		<g>
			<path class="st7" d="M2293.9,817.5c0,0,43.8-86.5,33.6-108.8s-61.1,55.4-56.9,113.9L2293.9,817.5z"/>
			<g>
				<path class="st14" d="M2309.4,824c6.7-15-29.4-14.9-43-23c-130.2,281.2,57.6,431,295.2,230c36.3-30.7,18.8-35.8-2.9-55.7
					c3.4-6.4,3.7-6.3,0,0c-21.8-19.9-28.7-26.1-60.3,5.3C2292.2,1186,2237.8,985.6,2309.4,824z"/>
			</g>
			<g>
				<path class="st8" d="M2530.5,1476.7c-29.5,55.1-52,114.6-68.7,177.1h-128.3c6.3-96.2,21.9-181.8,51.1-247
					C2433.5,1429.8,2482.1,1453,2530.5,1476.7z"/>
			</g>
			<g>
				<path class="st15" d="M2566.8,1653.8h-128.3c-11.7-75.4-17.8-158.7-18.9-252.5c54.4,7.2,108.7,15.2,162.9,23.8
					C2571.5,1508.9,2566,1584.5,2566.8,1653.8z"/>
			</g>
			<g>
				<path class="st16" d="M2580.1,1508.1c-26-10.3-63.5-20.2-128.9-23c-44.4-1.9-79.3-0.3-106.6,3.3
					c114.4-245.5,134.2-367.9,123.9-436.8c-5.2-34.4,8.3-68.9,35.8-90l10.7-8.3c50-38.4,123.1-11,135.1,50.9c4,20.7,7.1,44.3,8.5,71
					C2665.2,1202.1,2648.4,1340,2580.1,1508.1z"/>
			</g>
			<path class="st7" d="M2305.2,1325.6c0,0-89.6-48.4-113.2-38.4s56.4,65.7,117.9,63L2305.2,1325.6z"/>
			<g>
				<path class="st14" d="M2292.2,1315.7c-7,17.4-14,34.5-21.9,50.7c317.9,22.2,399.4-43.2,378-336.9c-3.3-44.9-13.2-49.7-51.7-39.3
					c-29,7.8-28.1,24-24.5,64C2595.8,1316,2581.9,1300.6,2292.2,1315.7z"/>
			</g>
			<path class="st7" d="M2601.2,847.5c-21.4,52.7-75.5,80.5-107.8,67.4c-32.2-13.1-30.3-62.1-8.9-114.8
				c21.4-52.7,58.5-68.9,90.7-55.8C2607.4,757.4,2622.6,794.8,2601.2,847.5z"/>
			<path class="st10" d="M2622.5,817.1c0,0,2.6-38.3-18.8-61.2c-21.4-22.9-73.2-41.6-103.2,0.7c0,0-18.6,32,21.9,51.1
				c40.4,19.1,40.2-5.5,54,22c13.8,27.5,37.4,18.1,39.7,24.1L2622.5,817.1z"/>
			<path class="st17" d="M2608.1,860.6c0,0-7.5-97.1-107.7-104c0,0,0.1-21,27.3-31.4c27.2-10.4,78.2-14.8,138.9,34.8
				c0,0,15.7,22.1-5.1,26.6s-19.3,8.2-20,17.8S2640.8,873.4,2608.1,860.6z"/>
			<path class="st7" d="M2592,849.4l-59.5-5.8c-0.8,8.1-7,85.7-4,114.9c2.2,9,17,13.1,33.1,9.2c14.5-3.5,25-12.3,25.4-20.6l0.1,0
				C2585.3,929.6,2589.2,877.9,2592,849.4z"/>
			<path class="st7" d="M2617.5,875.3c-5,12.3-23.6,23-32.4,19.4c-8.9-3.6-7.1-14.5-2.1-26.7c5-12.3,16.9-20.8,25.7-17.2
				C2617.6,854.4,2622.5,863.1,2617.5,875.3z"/>
			<path class="st18" d="M2575.7,869.1c-10.4-7.7-16.9,2.3-35.4,17.9c-18.4,15.6-56.1,19.8-68-28.2c-7.6-30.6-15.3,23.3-15.3,23.3
				c1.4,26,11.2,40,30.3,47.8c26.4,10.7,63.4,1.4,92.7-24.8C2583,891.6,2582.8,874.3,2575.7,869.1z"/>
		</g>
	</g>
	<polygon class="st1" points="2068.2,609.7 2215.2,740 2068.2,690.8 	"/>
	<polygon class="st1" points="1531.8,609.7 1384.8,740 1531.8,690.8 	"/>
	<path class="st19" d="M1684,576.7v343.6c0,23.1-18.7,41.9-41.9,41.9h0c-23.1,0-41.9-18.7-41.9-41.9V732.2
		c0-21.5-17.4-38.8-38.8-38.8h0c-21.5,0-38.8,17.4-38.8,38.8v240.3c0,24.4-19.8,44.2-44.2,44.2h0c-24.4,0-44.2-19.8-44.2-44.2V578.1
		c0-36.5-29.6-66-66-66h0c-36.5,0-66,29.6-66,66v176"/>
	<g>
		<path class="st7" d="M1856.8,292.1c0-98.1-81.8-177.2-181-172.6c-89.2,4.1-161.3,77-164.5,166.2c-1.9,54.1,21,102.9,58.3,135.9
			c22.8,20.1,35.3,49.5,35.3,79.9v4.6c0,12.8,10.4,23.2,23.2,23.2h111.7c12.8,0,23.2-10.4,23.2-23.2v-4.6c0-30.8,13.2-60,36.1-80.6
			C1834.5,389.3,1856.8,343.3,1856.8,292.1z"/>
		<path class="st20" d="M1702.1,645.5h-36.2c-9.9,0-17.9-8-17.9-17.9v-98.1c0-0.7,0.6-1.2,1.2-1.2h69.6c0.7,0,1.2,0.6,1.2,1.2v98.1
			C1720,637.4,1712,645.5,1702.1,645.5z"/>
		<path class="st21" d="M1724.8,626.6h-81.6c-11.9,0-21.6-9.7-21.6-21.6v-75.3c0-0.8,0.7-1.5,1.5-1.5h121.8c0.8,0,1.5,0.7,1.5,1.5
			V605C1746.4,616.9,1736.7,626.6,1724.8,626.6z"/>
		<path class="st20" d="M1752.2,609.7h-136.4c-3,0-5.4-2.4-5.4-5.4v-7.6c0-3,2.4-5.4,5.4-5.4h136.4c3,0,5.4,2.4,5.4,5.4v7.6
			C1757.6,607.3,1755.2,609.7,1752.2,609.7z"/>
		<path class="st20" d="M1752.2,583.3h-136.4c-3,0-5.4-2.4-5.4-5.4v-7.6c0-3,2.4-5.4,5.4-5.4h136.4c3,0,5.4,2.4,5.4,5.4v7.6
			C1757.6,580.9,1755.2,583.3,1752.2,583.3z"/>
		<path class="st20" d="M1752.2,556.8h-136.4c-3,0-5.4-2.4-5.4-5.4v-7.6c0-3,2.4-5.4,5.4-5.4h136.4c3,0,5.4,2.4,5.4,5.4v7.6
			C1757.6,554.4,1755.2,556.8,1752.2,556.8z"/>
	</g>
	<g>
		<g>
			<path class="st16" d="M1677.5,206.7c0-21.9-17.7-39.6-39.6-39.6c-21.9,0-39.6,17.7-39.6,39.6c0,0.2,0,0.4,0,0.6
				c-2-0.4-4.1-0.6-6.2-0.6c-16.7,0-30.2,13.5-30.2,30.2c0,4.9,1.2,9.5,3.3,13.6c-12.5,6.4-21.1,19.4-21.1,34.4
				c0,12,5.5,22.7,14.1,29.8c-3.5,4.7-5.5,10.4-5.5,16.7c0,15.5,12.6,28.1,28.1,28.1c0.6,0,1.3,0,1.9-0.1c0,0,0,0,0,0.1
				c0,14,11.4,25.4,25.4,25.4c6.6,0,12.6-2.5,17.1-6.6c4,10,13.8,17.1,25.2,17.1c15,0,27.1-12.2,27.1-27.1V206.7L1677.5,206.7
				C1677.5,206.7,1677.5,206.7,1677.5,206.7z"/>
			<g>
				<path class="st22" d="M1651.9,328.1h2.4v-5.9h-2.4c-12.5,0-22.7-10.2-22.7-22.7v-40.2h-5.9v40.2v30.2c-5.4,1.3-9.4,6.2-9.4,12
					h5.9c0-3.6,2.9-6.5,6.5-6.5c3.6,0,6.5,2.9,6.5,6.5h5.9c0-5.8-4-10.7-9.4-12v-12.9C1634.4,323.7,1642.7,328.1,1651.9,328.1z"/>
				<path class="st22" d="M1680.6,265.4c0-0.9-0.1-1.7-0.2-2.6v-56.1h-5.9c0,18.9-15.4,34.3-34.3,34.3v5.9
					c14.5,0,27.2-7.7,34.3-19.3V252c-3.1-2.8-7.3-4.5-11.8-4.5c-9.8,0-17.8,8-17.8,17.8h5.9c0-6.6,5.4-12,12-12
					c5.9,0,10.8,4.3,11.8,9.9v85.1c-5.5-7.4-14.3-12.2-24.2-12.2v5.9c13.3,0,24.2,10.9,24.2,24.2v1.9c0,13.3-10.9,24.2-24.2,24.2
					c-13.3,0-24.2-10.9-24.2-24.2h-5.9c0,3.1,0.5,6.2,1.4,9c-8.7,6.6-21.2,6.1-29.2-1.7c-7.8-7.6-8.9-19.4-3.3-28.2
					c1.9,1.1,4,1.7,6.2,1.7c3.3,0,6.4-1.3,8.8-3.6l-4.2-4.2c-1.2,1.2-2.9,1.9-4.6,1.9s-3.4-0.7-4.6-1.9c-2.5-2.5-2.5-6.7,0-9.2
					l-4.2-4.2c-4.2,4.2-4.7,10.5-1.7,15.3c-2.8,4-4.5,8.7-5,13.4c-13.5-0.5-24.3-11.6-24.3-25.1c0-13.9,11.3-25.2,25.2-25.2h2.9
					c0-6.6,5.4-12,12-12c6.6,0,12,5.4,12,12h5.9c0-9.8-8-17.8-17.8-17.8c-5.8,0-10.9,2.8-14.2,7c-3-6.8-9.8-11.5-17.7-11.5v5.9
					c6.5,0,12,4.7,13.3,10.8c-7.6,0.9-14.3,4.5-19.2,9.9c-6.9-6.7-10.8-15.9-10.8-25.6c0-18.7,14.6-34.1,33-35.5
					c1.5,8.4,8.8,14.8,17.6,14.8v-5.9c-6.6,0-12-5.4-12-12c0-6.6,5.4-12,12-12v-5.9c-8.9,0-16.3,6.5-17.6,15
					c-4.7,0.3-9.1,1.4-13.2,3.1c-1.8-5-1.9-9.7-1.9-9.7c0-15,12.2-27.2,27.2-27.2c14.2,0,25.8,10.9,27.1,24.7
					c-5.3,1.4-9.3,6.2-9.3,12h5.9c0-3.6,2.9-6.5,6.5-6.5c3.6,0,6.5,2.9,6.5,6.5h5.9c0-5.9-4.1-10.8-9.6-12
					c-1.1-13.9-10.8-25.4-23.8-29.2c0.9-19.5,17-35,36.6-35c20.2,0,36.7,16.4,36.7,36.7h5.9c0-23.5-19.1-42.5-42.5-42.5
					c-22.5,0-41,17.6-42.4,39.8c-1.1-0.1-2.2-0.2-3.4-0.2c-18.3,0-33.1,14.9-33.1,33.1c0,0.3,0.1,6.1,2.4,12.3
					c-12.1,7.3-20.3,20.5-20.3,35.7c0,11.5,4.8,22.5,13.1,30.3c-2.9,4.7-4.6,10.3-4.6,16.2c0,16.8,13.5,30.6,30.2,31
					c0.7,6.4,3.5,12.5,8.4,17.3c5.5,5.3,12.6,8,19.7,8c5.6,0,11.2-1.7,16-4.9c5.1,9.3,15,15.5,26.3,15.5c16.6,0,30.1-13.5,30.1-30.1
					V265.4H1680.6z"/>
			</g>
		</g>
		<g>
			<path class="st16" d="M1690.5,206.7c0-21.9,17.7-39.6,39.6-39.6c21.9,0,39.6,17.7,39.6,39.6c0,0.2,0,0.4,0,0.6
				c2-0.4,4.1-0.6,6.2-0.6c16.7,0,30.2,13.5,30.2,30.2c0,4.9-1.2,9.5-3.3,13.6c12.5,6.4,21.1,19.4,21.1,34.4
				c0,12-5.5,22.7-14.1,29.8c3.5,4.7,5.5,10.4,5.5,16.7c0,15.5-12.6,28.1-28.1,28.1c-0.6,0-1.3,0-1.9-0.1c0,0,0,0,0,0.1
				c0,14-11.4,25.4-25.4,25.4c-6.6,0-12.6-2.5-17.1-6.6c-4,10-13.8,17.1-25.2,17.1c-15,0-27.1-12.2-27.1-27.1V206.7L1690.5,206.7
				C1690.5,206.7,1690.5,206.7,1690.5,206.7z"/>
			<g>
				<path class="st22" d="M1716.1,328.1h-2.4v-5.9h2.4c12.5,0,22.7-10.2,22.7-22.7v-40.2h5.9v40.2v30.2c5.4,1.3,9.4,6.2,9.4,12h-5.9
					c0-3.6-2.9-6.5-6.5-6.5c-3.6,0-6.5,2.9-6.5,6.5h-5.9c0-5.8,4-10.7,9.4-12v-12.9C1733.6,323.7,1725.3,328.1,1716.1,328.1z"/>
				<path class="st22" d="M1687.4,265.4c0-0.9,0.1-1.7,0.2-2.6v-56.1h5.9c0,18.9,15.4,34.3,34.3,34.3v5.9
					c-14.5,0-27.2-7.7-34.3-19.3V252c3.1-2.8,7.3-4.5,11.8-4.5c9.8,0,17.8,8,17.8,17.8h-5.9c0-6.6-5.4-12-12-12
					c-5.9,0-10.8,4.3-11.8,9.9v85.1c5.5-7.4,14.3-12.2,24.2-12.2v5.9c-13.3,0-24.2,10.9-24.2,24.2v1.9c0,13.3,10.9,24.2,24.2,24.2
					c13.3,0,24.2-10.9,24.2-24.2h5.9c0,3.1-0.5,6.2-1.4,9c8.7,6.6,21.2,6.1,29.2-1.7c7.8-7.6,8.9-19.4,3.3-28.2
					c-1.9,1.1-4,1.7-6.2,1.7c-3.3,0-6.4-1.3-8.8-3.6l4.2-4.2c1.2,1.2,2.9,1.9,4.6,1.9c1.7,0,3.4-0.7,4.6-1.9c2.5-2.5,2.5-6.7,0-9.2
					l4.2-4.2c4.2,4.2,4.7,10.5,1.7,15.3c2.8,4,4.5,8.7,5,13.4c13.5-0.5,24.3-11.6,24.3-25.1c0-13.9-11.3-25.2-25.2-25.2h-2.9
					c0-6.6-5.4-12-12-12c-6.6,0-12,5.4-12,12h-5.9c0-9.8,8-17.8,17.8-17.8c5.8,0,10.9,2.8,14.2,7c3-6.8,9.8-11.5,17.7-11.5v5.9
					c-6.5,0-12,4.7-13.3,10.8c7.6,0.9,14.3,4.5,19.2,9.9c6.9-6.7,10.8-15.9,10.8-25.6c0-18.7-14.6-34.1-33-35.5
					c-1.5,8.4-8.8,14.8-17.6,14.8v-5.9c6.6,0,12-5.4,12-12c0-6.6-5.4-12-12-12v-5.9c8.9,0,16.3,6.5,17.6,15
					c4.7,0.3,9.1,1.4,13.2,3.1c1.8-5,1.9-9.7,1.9-9.7c0-15-12.2-27.2-27.2-27.2c-14.2,0-25.8,10.9-27.1,24.7c5.3,1.4,9.3,6.2,9.3,12
					h-5.9c0-3.6-2.9-6.5-6.5-6.5c-3.6,0-6.5,2.9-6.5,6.5h-5.9c0-5.9,4.1-10.8,9.6-12c1.1-13.9,10.8-25.4,23.8-29.2
					c-0.9-19.5-17-35-36.6-35c-20.2,0-36.7,16.4-36.7,36.7h-5.9c0-23.5,19.1-42.5,42.5-42.5c22.5,0,41,17.6,42.4,39.8
					c1.1-0.1,2.2-0.2,3.4-0.2c18.3,0,33.1,14.9,33.1,33.1c0,0.3-0.1,6.1-2.4,12.3c12.1,7.3,20.3,20.5,20.3,35.7
					c0,11.5-4.8,22.5-13.1,30.3c2.9,4.7,4.6,10.3,4.6,16.2c0,16.8-13.5,30.6-30.2,31c-0.7,6.4-3.5,12.5-8.4,17.3
					c-5.5,5.3-12.6,8-19.7,8c-5.6,0-11.2-1.7-16-4.9c-5.1,9.3-15,15.5-26.3,15.5c-16.6,0-30.1-13.5-30.1-30.1V265.4H1687.4z"/>
			</g>
		</g>
	</g>
	<g>
		<g>
			<path class="st4" d="M1323,780.4L1323,780.4c3.8,0,6.8,3,6.8,6.8v53.6c0,3.8-3,6.8-6.8,6.8h0c-3.8,0-6.8-3-6.8-6.8v-53.6
				C1316.2,783.5,1319.3,780.4,1323,780.4z"/>
			<path class="st4" d="M1281.1,780.4L1281.1,780.4c3.8,0,6.8,3,6.8,6.8v53.6c0,3.8-3,6.8-6.8,6.8l0,0c-3.8,0-6.8-3-6.8-6.8v-53.6
				C1274.3,783.5,1277.3,780.4,1281.1,780.4z"/>
		</g>
		<path class="st23" d="M1302.1,714.6L1302.1,714.6c21.3,0,38.5,17.3,38.5,38.5v52.2h-77.1v-52.2
			C1263.5,731.9,1280.8,714.6,1302.1,714.6z"/>
		<path class="st24" d="M1252,783.7h100.1c1.7,0,3.1,1.4,3.1,3.1V802c0,1.7-1.4,3.1-3.1,3.1H1252c-1.7,0-3.1-1.4-3.1-3.1v-15.2
			C1248.9,785.1,1250.3,783.7,1252,783.7z"/>
		<circle class="st16" cx="1302.1" cy="741.6" r="5.3"/>
	</g>
	<g>
		<path class="st16" d="M1962.7,325.8c0-7.6-7.4-11.5-16.4-11.5c-10.5,0-20.3,6.4-25.5,16.7l-43.6-21.8
			c12.5-23.5,37.3-39.7,76.5-39.7c38.5,0,67.2,16.2,67.2,46.8c0,37.5-39.2,44.1-39.2,63H1931C1931,349.6,1962.7,340.8,1962.7,325.8z
			 M1923.9,418c0-16.4,13.2-28.9,32.4-28.9c19.1,0,32.4,12.5,32.4,28.9c0,16.2-13.2,29.4-32.4,29.4
			C1937.2,447.4,1923.9,434.2,1923.9,418z"/>
	</g>
	<g>
		<path class="st25" d="M1826.2,651C1826.2,650.9,1826.1,650.9,1826.2,651c0-0.2,0-0.2-0.1-0.3c0-0.3-0.1-0.5-0.2-0.8
			c0-0.1,0-0.1,0-0.2c-0.1-0.3-0.1-0.5-0.2-0.8c0-0.1,0-0.1,0-0.2c0,0,0,0,0,0c0-0.1,0-0.1,0-0.2c0-0.2-0.1-0.3-0.1-0.5
			c0,0,0-0.1,0-0.1c0,0,0-0.1,0-0.1c0-0.2-0.1-0.3-0.1-0.5c0-0.1,0-0.1-0.1-0.2c0,0,0,0,0,0c0-0.1,0-0.1,0-0.2
			c-0.1-0.3-0.1-0.5-0.2-0.8c0-0.1,0-0.1-0.1-0.2c-0.1-0.2-0.2-0.5-0.2-0.7c0-0.1,0-0.1-0.1-0.2c0,0,0-0.1,0-0.1l3.9-2.8l2.9-2.1
			c-0.6-1.7-0.7-2.2-1.6-3.9c-0.8-1.7-1.1-2-2.1-3.6l-3.4,1l-4.6,1.3c0,0,0,0,0,0c0-0.1-0.1-0.1-0.1-0.2c-0.1-0.2-0.3-0.4-0.4-0.6
			c0-0.1-0.1-0.1-0.1-0.2c-0.2-0.2-0.3-0.4-0.5-0.6c0,0-0.1-0.1-0.1-0.1c-0.1-0.1-0.1-0.2-0.2-0.3c-0.1-0.1-0.1-0.2-0.2-0.3
			c0,0-0.1-0.1-0.1-0.1c-0.2-0.2-0.3-0.4-0.5-0.6c0-0.1-0.1-0.1-0.1-0.1c-0.2-0.2-0.3-0.4-0.5-0.6c0,0-0.1-0.1-0.1-0.1c0,0,0,0,0,0
			l2.5-4l1.9-3c-1.2-1.4-1.5-1.7-2.9-3c-1.4-1.3-1.8-1.5-3.3-2.6l-2.8,2.2l-3.8,3c0,0-0.1,0-0.1-0.1c-0.1,0-0.1-0.1-0.2-0.1
			c-0.2-0.1-0.4-0.3-0.6-0.4c-0.1,0-0.1-0.1-0.2-0.1c-0.2-0.1-0.4-0.3-0.7-0.4c-0.1,0-0.1-0.1-0.2-0.1c0,0,0,0,0,0
			c-0.1,0-0.1-0.1-0.2-0.1c-0.1-0.1-0.3-0.2-0.4-0.2c0,0,0,0-0.1,0c0,0-0.1,0-0.1,0c-0.1-0.1-0.3-0.2-0.4-0.2
			c-0.1,0-0.1-0.1-0.2-0.1c0,0,0,0,0,0c-0.1,0-0.1-0.1-0.2-0.1c-0.2-0.1-0.5-0.3-0.7-0.4c-0.1,0-0.1-0.1-0.2-0.1
			c-0.2-0.1-0.5-0.2-0.7-0.4c-0.1,0-0.1-0.1-0.2-0.1c0,0-0.1,0-0.1,0l0.8-4.7l0.6-3.5c-1.7-0.8-2-1-3.8-1.6c-1.8-0.6-2.2-0.7-4-1.1
			l-1.7,3.1l-2.3,4.2c0,0,0,0-0.1,0c-0.1,0-0.1,0-0.2,0c-0.3,0-0.5-0.1-0.8-0.1c-0.1,0-0.1,0-0.2,0c-0.3,0-0.5-0.1-0.8-0.1
			c-0.1,0-0.1,0-0.2,0c-0.1,0-0.2,0-0.3-0.1c-0.1,0-0.2,0-0.3,0c-0.1,0-0.1,0-0.2,0c-0.3,0-0.5-0.1-0.8-0.1c-0.1,0-0.1,0-0.2,0
			c-0.3,0-0.5-0.1-0.8-0.1c-0.1,0-0.1,0-0.2,0c0,0,0,0-0.1,0l-1.1-4.7l-0.8-3.5c-1.8-0.1-2.3-0.2-4.2-0.1c-1.9,0.1-2.3,0.2-4.1,0.5
			l-0.4,3.6l-0.6,4.7c0,0-0.1,0-0.1,0c-0.1,0-0.1,0-0.2,0c-0.3,0-0.5,0.1-0.8,0.2c-0.1,0-0.1,0-0.2,0c-0.3,0.1-0.5,0.1-0.8,0.2
			c-0.1,0-0.1,0-0.2,0c0,0,0,0,0,0c-0.1,0-0.1,0-0.2,0c-0.2,0-0.3,0.1-0.5,0.1c0,0-0.1,0-0.1,0c0,0-0.1,0-0.1,0
			c-0.2,0-0.3,0.1-0.5,0.1c-0.1,0-0.1,0-0.2,0.1c0,0,0,0,0,0c-0.1,0-0.1,0-0.2,0c-0.3,0.1-0.5,0.1-0.8,0.2c-0.1,0-0.1,0-0.2,0.1
			c-0.2,0.1-0.5,0.2-0.7,0.2c-0.1,0-0.1,0-0.2,0.1c0,0-0.1,0-0.1,0l-2.8-3.9l-2.1-2.9c-1.7,0.6-2.2,0.7-3.9,1.6
			c-1.7,0.8-2,1.1-3.6,2.1l1,3.4l1.3,4.6c0,0,0,0,0,0c-0.1,0-0.1,0.1-0.2,0.1c-0.2,0.1-0.4,0.3-0.6,0.4c-0.1,0-0.1,0.1-0.2,0.1
			c-0.2,0.2-0.4,0.3-0.6,0.5c0,0-0.1,0.1-0.1,0.1c-0.1,0.1-0.2,0.1-0.3,0.2c-0.1,0.1-0.2,0.1-0.3,0.2c0,0-0.1,0.1-0.1,0.1
			c-0.2,0.2-0.4,0.3-0.6,0.5c0,0-0.1,0.1-0.1,0.1c-0.2,0.2-0.4,0.3-0.6,0.5c0,0-0.1,0.1-0.1,0.1c0,0,0,0,0,0l-4-2.5l-3-1.9
			c-1.4,1.2-1.7,1.5-3,2.9c-1.3,1.4-1.5,1.8-2.6,3.3l2.2,2.8l3,3.8c0,0,0,0.1-0.1,0.1c0,0.1-0.1,0.1-0.1,0.2
			c-0.1,0.2-0.3,0.4-0.4,0.6c0,0.1-0.1,0.1-0.1,0.2c-0.1,0.2-0.3,0.4-0.4,0.7c0,0.1-0.1,0.1-0.1,0.2c0,0,0,0,0,0
			c0,0.1-0.1,0.1-0.1,0.2c-0.1,0.1-0.2,0.3-0.2,0.4c0,0,0,0,0,0.1c0,0,0,0,0,0c0,0,0,0,0,0.1c-0.1,0.1-0.2,0.3-0.2,0.4
			c0,0.1-0.1,0.1-0.1,0.2c0,0,0,0,0,0c0,0.1-0.1,0.1-0.1,0.2c-0.1,0.2-0.3,0.5-0.4,0.7c0,0.1-0.1,0.1-0.1,0.2
			c-0.1,0.2-0.2,0.5-0.4,0.7c0,0.1-0.1,0.1-0.1,0.2c0,0,0,0.1,0,0.1l-4.7-0.8l-3.5-0.6c-0.8,1.7-1,2-1.6,3.8c-0.6,1.8-0.7,2.2-1.1,4
			l3.1,1.7l4.2,2.3c0,0,0,0,0,0.1c0,0.1,0,0.1,0,0.2c-0.1,0.3-0.1,0.5-0.1,0.8c0,0.1,0,0.1,0,0.2c0,0.3-0.1,0.5-0.1,0.8
			c0,0.1,0,0.1,0,0.2c0,0.1,0,0.2-0.1,0.3c0,0.1,0,0.2,0,0.3c0,0.1,0,0.1,0,0.2c0,0.3-0.1,0.5-0.1,0.8c0,0.1,0,0.1,0,0.2
			c0,0.3-0.1,0.5-0.1,0.8c0,0.1,0,0.1,0,0.2c0,0,0,0,0,0.1l-4.7,1.1l-3.5,0.8c-0.1,1.8-0.2,2.3-0.1,4.2c0.1,1.9,0.2,2.3,0.5,4.1
			l3.6,0.4l4.7,0.6c0,0,0,0.1,0,0.1c0,0.1,0,0.1,0,0.2c0,0.3,0.1,0.5,0.2,0.8c0,0.1,0,0.1,0,0.2c0.1,0.3,0.1,0.5,0.2,0.8
			c0,0.1,0,0.1,0,0.2c0,0,0,0,0,0c0,0.1,0,0.1,0,0.2c0,0.2,0.1,0.3,0.1,0.5c0,0,0,0.1,0,0.1c0,0,0,0.1,0,0.1c0,0.2,0.1,0.3,0.1,0.5
			c0,0.1,0,0.1,0.1,0.2c0,0,0,0,0,0c0,0.1,0,0.1,0,0.2c0.1,0.3,0.1,0.5,0.2,0.8l0.1,0.2c0.1,0.2,0.2,0.5,0.2,0.7l0.1,0.2
			c0,0,0,0.1,0,0.1l-3.9,2.8l-2.9,2.1c0.6,1.7,0.7,2.2,1.6,3.9c0.8,1.7,1.1,2,2.1,3.6l3.4-1l4.6-1.3c0,0,0,0,0,0
			c0,0.1,0.1,0.1,0.1,0.2c0.1,0.2,0.3,0.4,0.4,0.6c0,0.1,0.1,0.1,0.1,0.2c0.2,0.2,0.3,0.4,0.5,0.6c0,0,0.1,0.1,0.1,0.1
			c0.1,0.1,0.1,0.2,0.2,0.3c0.1,0.1,0.1,0.2,0.2,0.3c0,0,0.1,0.1,0.1,0.1c0.2,0.2,0.3,0.4,0.5,0.6c0,0,0.1,0.1,0.1,0.1
			c0.2,0.2,0.3,0.4,0.5,0.6c0,0,0.1,0.1,0.1,0.1c0,0,0,0,0,0l-2.5,4l-1.9,3c1.2,1.4,1.5,1.7,2.9,3c1.4,1.3,1.8,1.5,3.3,2.6l2.8-2.2
			l3.8-3c0,0,0.1,0,0.1,0.1c0.1,0,0.1,0.1,0.2,0.1c0.2,0.1,0.4,0.3,0.6,0.4c0.1,0,0.1,0.1,0.2,0.1c0.2,0.1,0.4,0.3,0.7,0.4
			c0.1,0,0.1,0.1,0.2,0.1c0,0,0,0,0,0c0.1,0,0.1,0.1,0.2,0.1c0.1,0.1,0.3,0.2,0.4,0.2c0,0,0,0,0.1,0c0,0,0,0,0.1,0
			c0.1,0.1,0.3,0.2,0.4,0.2c0.1,0,0.1,0.1,0.2,0.1c0,0,0,0,0,0c0.1,0,0.1,0.1,0.2,0.1c0.2,0.1,0.5,0.3,0.7,0.4
			c0.1,0,0.1,0.1,0.2,0.1c0.2,0.1,0.5,0.2,0.7,0.4c0.1,0,0.1,0.1,0.2,0.1c0,0,0.1,0,0.1,0l-0.8,4.7l-0.6,3.5c1.7,0.8,2,1,3.8,1.6
			c1.8,0.6,2.2,0.7,4,1.1l1.7-3.1l2.3-4.2c0,0,0,0,0.1,0c0.1,0,0.1,0,0.2,0c0.3,0.1,0.5,0.1,0.8,0.1c0.1,0,0.1,0,0.2,0
			c0.3,0,0.5,0.1,0.8,0.1c0.1,0,0.1,0,0.2,0c0.1,0,0.2,0,0.3,0.1c0.1,0,0.2,0,0.3,0c0.1,0,0.1,0,0.2,0c0.3,0,0.5,0.1,0.8,0.1
			c0.1,0,0.1,0,0.2,0c0.3,0,0.5,0.1,0.8,0.1c0.1,0,0.1,0,0.2,0c0,0,0,0,0.1,0l1.1,4.7l0.8,3.5c1.8,0.1,2.3,0.2,4.2,0.1
			c1.9-0.1,2.3-0.2,4.1-0.5l0.4-3.6l0.6-4.7c0,0,0.1,0,0.1,0c0.1,0,0.1,0,0.2,0c0.3,0,0.5-0.1,0.8-0.2c0.1,0,0.1,0,0.2,0
			c0.3-0.1,0.5-0.1,0.8-0.2c0.1,0,0.1,0,0.2,0c0,0,0,0,0,0c0.1,0,0.1,0,0.2-0.1c0.2,0,0.3-0.1,0.5-0.1c0,0,0.1,0,0.1,0
			c0,0,0.1,0,0.1,0c0.2,0,0.3-0.1,0.5-0.1c0.1,0,0.1,0,0.2-0.1c0,0,0,0,0,0c0.1,0,0.1,0,0.2,0c0.3-0.1,0.5-0.1,0.8-0.2
			c0.1,0,0.1,0,0.2-0.1c0.3-0.1,0.5-0.2,0.7-0.2l0.2-0.1c0,0,0.1,0,0.1,0l2.8,3.9l2.1,2.9c1.7-0.6,2.2-0.7,3.9-1.6
			c1.7-0.8,2-1.1,3.6-2.1l-1-3.4l-1.3-4.6c0,0,0,0,0,0c0.1,0,0.1-0.1,0.2-0.1c0.2-0.1,0.4-0.3,0.6-0.4c0.1,0,0.1-0.1,0.2-0.1
			c0.2-0.2,0.4-0.3,0.6-0.5c0,0,0.1-0.1,0.1-0.1c0.1-0.1,0.2-0.1,0.3-0.2c0.1-0.1,0.2-0.1,0.3-0.2c0,0,0.1-0.1,0.1-0.1
			c0.2-0.2,0.4-0.3,0.6-0.5c0,0,0.1-0.1,0.1-0.1c0.2-0.2,0.4-0.3,0.6-0.5c0,0,0.1-0.1,0.1-0.1c0,0,0,0,0,0l4,2.5l3,1.9
			c1.4-1.2,1.7-1.5,3-2.9c1.3-1.4,1.5-1.8,2.6-3.3l-2.2-2.8l-3-3.8c0,0,0-0.1,0.1-0.1c0-0.1,0.1-0.1,0.1-0.2
			c0.1-0.2,0.3-0.4,0.4-0.6c0-0.1,0.1-0.1,0.1-0.2c0.1-0.2,0.3-0.4,0.4-0.7c0-0.1,0.1-0.1,0.1-0.2c0,0,0,0,0,0
			c0-0.1,0.1-0.1,0.1-0.2c0.1-0.1,0.2-0.3,0.2-0.4c0,0,0-0.1,0-0.1c0,0,0-0.1,0-0.1c0.1-0.1,0.2-0.3,0.2-0.4c0-0.1,0.1-0.1,0.1-0.2
			c0,0,0,0,0,0c0-0.1,0.1-0.1,0.1-0.2c0.1-0.2,0.3-0.5,0.4-0.7c0-0.1,0.1-0.1,0.1-0.2c0.1-0.2,0.2-0.5,0.4-0.7
			c0-0.1,0.1-0.1,0.1-0.2c0,0,0-0.1,0-0.1l4.7,0.8l3.5,0.6c0.8-1.7,1-2,1.6-3.8c0.6-1.8,0.7-2.2,1.1-4l-3.1-1.7l-4.2-2.3
			c0,0,0,0,0-0.1c0-0.1,0-0.1,0-0.2c0-0.3,0.1-0.5,0.1-0.8l0-0.2c0-0.3,0.1-0.5,0.1-0.8c0-0.1,0-0.1,0-0.2c0-0.1,0-0.2,0.1-0.3
			c0-0.1,0-0.2,0-0.3c0-0.1,0-0.1,0-0.2c0-0.3,0.1-0.5,0.1-0.8c0-0.1,0-0.1,0-0.2c0-0.3,0.1-0.5,0.1-0.8c0-0.1,0-0.1,0-0.2
			c0,0,0,0,0-0.1l4.7-1.1l3.5-0.8c0.1-1.8,0.2-2.3,0.1-4.2c-0.1-1.9-0.2-2.3-0.5-4.1l-3.6-0.4L1826.2,651z M1807.4,657.5
			c0.7,12.7-9.1,23.6-21.8,24.2c-12.7,0.7-23.6-9.1-24.2-21.8c-0.7-12.7,9.1-23.6,21.8-24.2C1795.9,635,1806.7,644.8,1807.4,657.5z"
			/>
	</g>
	<g>
		<path class="st25" d="M2010.5,707.5c0-0.1,0-0.1,0-0.2c0-0.1,0-0.3-0.1-0.4c-0.1-0.5-0.2-1-0.3-1.5c0-0.1-0.1-0.2-0.1-0.4
			c-0.1-0.5-0.2-1-0.3-1.5c0-0.1-0.1-0.2-0.1-0.4c0,0,0,0,0,0c0-0.1-0.1-0.3-0.1-0.4c-0.1-0.3-0.2-0.6-0.2-0.9c0-0.1,0-0.1,0-0.2
			c0-0.1,0-0.1,0-0.2c-0.1-0.3-0.2-0.6-0.2-0.9c0-0.1-0.1-0.3-0.1-0.4c0,0,0,0,0,0c0-0.1-0.1-0.2-0.1-0.4c-0.1-0.5-0.3-1-0.4-1.5
			c0-0.1-0.1-0.2-0.1-0.4c-0.2-0.5-0.3-1-0.5-1.5c0-0.1-0.1-0.2-0.1-0.4c0-0.1,0-0.1-0.1-0.2l7.8-5.7l5.9-4.2
			c-1.3-3.5-1.5-4.4-3.1-7.8c-1.7-3.4-2.2-4.1-4.2-7.2l-6.9,2l-9.3,2.7c0,0,0-0.1-0.1-0.1c-0.1-0.1-0.1-0.2-0.2-0.3
			c-0.3-0.4-0.6-0.9-0.9-1.3c-0.1-0.1-0.1-0.2-0.2-0.3c-0.3-0.4-0.6-0.9-0.9-1.3c-0.1-0.1-0.1-0.2-0.2-0.3c-0.1-0.2-0.3-0.4-0.4-0.6
			c-0.1-0.2-0.3-0.4-0.4-0.6c-0.1-0.1-0.1-0.2-0.2-0.3c-0.3-0.4-0.7-0.8-1-1.2c-0.1-0.1-0.2-0.2-0.2-0.3c-0.3-0.4-0.7-0.8-1-1.2
			c-0.1-0.1-0.2-0.2-0.2-0.3c0,0,0-0.1-0.1-0.1l5.1-8.2l3.9-6.1c-2.5-2.8-3-3.5-5.8-6.1c-2.8-2.5-3.6-3-6.6-5.2l-5.7,4.5l-7.6,6
			c-0.1,0-0.1-0.1-0.2-0.1c-0.1-0.1-0.2-0.1-0.3-0.2c-0.4-0.3-0.9-0.6-1.3-0.9c-0.1-0.1-0.2-0.1-0.3-0.2c-0.4-0.3-0.9-0.6-1.3-0.8
			c-0.1-0.1-0.2-0.1-0.3-0.2c0,0,0,0,0,0c-0.1-0.1-0.2-0.1-0.4-0.2c-0.3-0.2-0.6-0.3-0.8-0.5c0,0-0.1-0.1-0.1-0.1
			c-0.1,0-0.1-0.1-0.2-0.1c-0.3-0.2-0.6-0.3-0.8-0.5c-0.1-0.1-0.2-0.1-0.4-0.2c0,0,0,0,0,0c-0.1-0.1-0.2-0.1-0.3-0.2
			c-0.5-0.3-0.9-0.5-1.4-0.8c-0.1-0.1-0.2-0.1-0.3-0.2c-0.5-0.2-0.9-0.5-1.4-0.7c-0.1-0.1-0.2-0.1-0.3-0.2c-0.1,0-0.1-0.1-0.2-0.1
			l1.5-9.5l1.1-7.1c-3.4-1.6-4.1-2.1-7.7-3.3c-3.6-1.2-4.5-1.3-8.1-2.1l-3.5,6.3l-4.6,8.5c0,0-0.1,0-0.1,0c-0.1,0-0.3,0-0.4-0.1
			c-0.5-0.1-1-0.2-1.5-0.3c-0.1,0-0.2,0-0.4-0.1c-0.5-0.1-1-0.2-1.6-0.3c-0.1,0-0.2,0-0.3,0c-0.2,0-0.5-0.1-0.7-0.1
			c-0.2,0-0.5-0.1-0.7-0.1c-0.1,0-0.2,0-0.3,0c-0.5-0.1-1.1-0.1-1.6-0.2c-0.1,0-0.2,0-0.4,0c-0.5-0.1-1-0.1-1.6-0.1
			c-0.1,0-0.3,0-0.4,0c0,0-0.1,0-0.1,0l-2.1-9.4l-1.6-7.1c-3.7-0.2-4.6-0.4-8.4-0.2c-3.8,0.2-4.7,0.4-8.3,1l-0.9,7.2l-1.1,9.6
			c-0.1,0-0.1,0-0.2,0c-0.1,0-0.2,0-0.4,0.1c-0.5,0.1-1,0.2-1.5,0.3c-0.1,0-0.2,0.1-0.4,0.1c-0.5,0.1-1,0.2-1.5,0.3
			c-0.1,0-0.2,0.1-0.4,0.1c0,0,0,0,0,0c-0.1,0-0.3,0.1-0.4,0.1c-0.3,0.1-0.6,0.2-0.9,0.2c-0.1,0-0.1,0-0.2,0c-0.1,0-0.1,0-0.2,0
			c-0.3,0.1-0.6,0.2-0.9,0.2c-0.1,0-0.3,0.1-0.4,0.1c0,0,0,0,0,0c-0.1,0-0.2,0.1-0.4,0.1c-0.5,0.1-1,0.3-1.5,0.4
			c-0.1,0-0.2,0.1-0.4,0.1c-0.5,0.2-1,0.3-1.5,0.5c-0.1,0-0.2,0.1-0.4,0.1c-0.1,0-0.1,0-0.2,0.1l-5.7-7.8l-4.2-5.9
			c-3.5,1.3-4.4,1.5-7.8,3.1c-3.4,1.7-4.1,2.2-7.2,4.2l2,6.9l2.7,9.3c0,0-0.1,0-0.1,0.1c-0.1,0.1-0.2,0.1-0.3,0.2
			c-0.4,0.3-0.9,0.6-1.3,0.9c-0.1,0.1-0.2,0.1-0.3,0.2c-0.4,0.3-0.9,0.6-1.3,0.9c-0.1,0.1-0.2,0.1-0.3,0.2c-0.2,0.1-0.4,0.3-0.6,0.4
			c-0.2,0.1-0.4,0.3-0.6,0.4c-0.1,0.1-0.2,0.1-0.2,0.2c-0.4,0.3-0.8,0.7-1.3,1c-0.1,0.1-0.2,0.1-0.3,0.2c-0.4,0.3-0.8,0.7-1.2,1
			c-0.1,0.1-0.2,0.2-0.3,0.2c0,0-0.1,0-0.1,0.1l-8.2-5.1l-6.1-3.9c-2.8,2.5-3.5,3-6.1,5.8c-2.5,2.8-3,3.6-5.2,6.6l4.5,5.7l6,7.6
			c0,0.1-0.1,0.1-0.1,0.2c-0.1,0.1-0.1,0.2-0.2,0.3c-0.3,0.4-0.6,0.9-0.9,1.3c-0.1,0.1-0.1,0.2-0.2,0.3c-0.3,0.4-0.6,0.9-0.8,1.3
			c-0.1,0.1-0.1,0.2-0.2,0.3c0,0,0,0,0,0c-0.1,0.1-0.1,0.2-0.2,0.4c-0.2,0.3-0.3,0.6-0.5,0.8c0,0-0.1,0.1-0.1,0.1c0,0,0,0,0,0
			c0,0-0.1,0.1-0.1,0.2c-0.2,0.3-0.3,0.6-0.5,0.8c-0.1,0.1-0.1,0.2-0.2,0.4c0,0,0,0,0,0c-0.1,0.1-0.1,0.2-0.2,0.3
			c-0.3,0.5-0.5,0.9-0.8,1.4c-0.1,0.1-0.1,0.2-0.2,0.3c-0.2,0.5-0.5,0.9-0.7,1.4c-0.1,0.1-0.1,0.2-0.2,0.3c0,0.1-0.1,0.1-0.1,0.2
			l-9.5-1.5l-7.1-1.1c-1.6,3.4-2.1,4.1-3.3,7.7c-1.2,3.6-1.3,4.5-2.1,8.1l6.3,3.5l8.5,4.6c0,0,0,0.1,0,0.1c0,0.1,0,0.2-0.1,0.4
			c-0.1,0.5-0.2,1-0.3,1.6c0,0.1,0,0.2-0.1,0.4c-0.1,0.5-0.2,1-0.3,1.6c0,0.1,0,0.2,0,0.3c0,0.2-0.1,0.5-0.1,0.7
			c0,0.2-0.1,0.5-0.1,0.7c0,0.1,0,0.2,0,0.3c-0.1,0.5-0.1,1.1-0.2,1.6c0,0.1,0,0.2,0,0.4c-0.1,0.5-0.1,1.1-0.2,1.6
			c0,0.1,0,0.2,0,0.4c0,0,0,0.1,0,0.1l-9.4,2.1l-7.1,1.6c-0.2,3.7-0.4,4.6-0.2,8.4c0.2,3.8,0.4,4.7,1,8.3l7.2,0.9l9.6,1.1
			c0,0.1,0,0.1,0,0.2c0,0.1,0,0.3,0.1,0.4c0.1,0.5,0.2,1,0.3,1.5c0,0.1,0.1,0.3,0.1,0.4c0.1,0.5,0.2,1,0.3,1.5
			c0,0.1,0.1,0.2,0.1,0.4c0,0,0,0,0,0c0,0.1,0.1,0.3,0.1,0.4c0.1,0.3,0.2,0.6,0.2,0.9c0,0.1,0,0.1,0,0.2c0,0.1,0,0.1,0,0.2
			c0.1,0.3,0.2,0.6,0.2,0.9c0,0.1,0.1,0.3,0.1,0.4c0,0,0,0,0,0c0,0.1,0.1,0.2,0.1,0.3c0.1,0.5,0.3,1,0.4,1.5l0.1,0.4
			c0.2,0.5,0.3,1,0.5,1.5l0.1,0.4c0,0.1,0,0.1,0.1,0.2l-7.8,5.7l-5.9,4.2c1.3,3.5,1.5,4.4,3.1,7.8c1.7,3.4,2.2,4.1,4.2,7.3l6.9-2
			l9.3-2.7c0,0,0,0.1,0.1,0.1c0.1,0.1,0.1,0.2,0.2,0.3c0.3,0.4,0.6,0.9,0.9,1.3c0.1,0.1,0.1,0.2,0.2,0.3c0.3,0.4,0.6,0.9,0.9,1.3
			c0.1,0.1,0.1,0.2,0.2,0.3c0.1,0.2,0.3,0.4,0.4,0.6c0.1,0.2,0.3,0.4,0.4,0.6c0.1,0.1,0.1,0.2,0.2,0.2c0.3,0.4,0.7,0.8,1,1.3
			c0.1,0.1,0.1,0.2,0.2,0.3c0.3,0.4,0.7,0.8,1,1.2c0.1,0.1,0.2,0.2,0.2,0.3c0,0,0,0.1,0.1,0.1l-5.1,8.2l-3.9,6.1
			c2.5,2.8,3,3.5,5.8,6.1c2.8,2.5,3.6,3,6.6,5.2l5.7-4.5l7.6-6c0.1,0,0.1,0.1,0.2,0.1c0.1,0.1,0.2,0.1,0.3,0.2
			c0.4,0.3,0.9,0.6,1.3,0.9c0.1,0.1,0.2,0.1,0.3,0.2c0.4,0.3,0.9,0.6,1.3,0.8c0.1,0.1,0.2,0.1,0.3,0.2c0,0,0,0,0,0
			c0.1,0.1,0.2,0.2,0.4,0.2c0.3,0.2,0.6,0.3,0.8,0.5c0,0,0.1,0.1,0.1,0.1c0,0,0.1,0.1,0.1,0.1c0.3,0.2,0.6,0.3,0.8,0.5
			c0.1,0.1,0.2,0.1,0.4,0.2c0,0,0,0,0,0c0.1,0.1,0.2,0.1,0.3,0.2c0.5,0.3,0.9,0.5,1.4,0.8c0.1,0.1,0.2,0.1,0.3,0.2
			c0.5,0.2,0.9,0.5,1.4,0.7c0.1,0.1,0.2,0.1,0.3,0.2c0.1,0,0.1,0.1,0.2,0.1l-1.5,9.5l-1.1,7.1c3.4,1.6,4.1,2.1,7.7,3.3
			c3.6,1.2,4.5,1.3,8.1,2.1l3.5-6.3l4.6-8.5c0,0,0.1,0,0.1,0c0.1,0,0.2,0,0.4,0.1c0.5,0.1,1,0.2,1.6,0.3c0.1,0,0.2,0,0.4,0.1
			c0.5,0.1,1,0.2,1.6,0.3c0.1,0,0.2,0,0.3,0c0.2,0,0.5,0.1,0.7,0.1c0.2,0,0.5,0.1,0.7,0.1c0.1,0,0.2,0,0.3,0
			c0.5,0.1,1.1,0.1,1.6,0.2c0.1,0,0.2,0,0.4,0c0.5,0.1,1.1,0.1,1.6,0.2c0.1,0,0.2,0,0.4,0c0,0,0.1,0,0.1,0l2.1,9.4l1.6,7.1
			c3.7,0.2,4.6,0.4,8.4,0.2c3.8-0.2,4.7-0.4,8.3-1l0.9-7.2l1.1-9.6c0.1,0,0.1,0,0.2,0c0.1,0,0.3,0,0.4-0.1c0.5-0.1,1-0.2,1.5-0.3
			c0.1,0,0.3-0.1,0.4-0.1c0.5-0.1,1-0.2,1.5-0.3c0.1,0,0.2-0.1,0.4-0.1c0,0,0,0,0,0c0.1,0,0.3-0.1,0.4-0.1c0.3-0.1,0.6-0.2,0.9-0.2
			c0.1,0,0.1,0,0.2,0c0.1,0,0.1,0,0.2,0c0.3-0.1,0.6-0.2,0.9-0.2c0.1,0,0.3-0.1,0.4-0.1c0,0,0,0,0,0c0.1,0,0.2-0.1,0.3-0.1
			c0.5-0.1,1-0.3,1.5-0.4c0.1,0,0.2-0.1,0.3-0.1c0.5-0.2,1-0.3,1.5-0.5l0.4-0.1c0.1,0,0.1,0,0.2-0.1l5.7,7.8l4.2,5.9
			c3.5-1.3,4.4-1.5,7.8-3.1c3.4-1.7,4.1-2.2,7.2-4.2l-2-6.9l-2.7-9.3c0,0,0.1,0,0.1-0.1c0.1-0.1,0.2-0.1,0.3-0.2
			c0.4-0.3,0.9-0.6,1.3-0.9c0.1-0.1,0.2-0.1,0.3-0.2c0.4-0.3,0.9-0.6,1.3-0.9c0.1-0.1,0.2-0.1,0.3-0.2c0.2-0.1,0.4-0.3,0.6-0.4
			c0.2-0.1,0.4-0.3,0.6-0.4c0.1-0.1,0.2-0.1,0.3-0.2c0.4-0.3,0.8-0.7,1.3-1c0.1-0.1,0.2-0.2,0.3-0.2c0.4-0.3,0.8-0.7,1.2-1
			c0.1-0.1,0.2-0.2,0.3-0.2c0,0,0.1,0,0.1-0.1l8.2,5.1l6.1,3.9c2.8-2.5,3.5-3,6.1-5.8c2.5-2.8,3-3.6,5.2-6.6l-4.5-5.7l-6-7.6
			c0-0.1,0.1-0.1,0.1-0.2c0.1-0.1,0.2-0.2,0.2-0.3c0.3-0.4,0.6-0.9,0.9-1.3c0.1-0.1,0.1-0.2,0.2-0.3c0.3-0.4,0.6-0.9,0.8-1.3
			c0.1-0.1,0.1-0.2,0.2-0.3c0,0,0,0,0,0c0.1-0.1,0.2-0.2,0.2-0.4c0.2-0.3,0.3-0.5,0.5-0.8c0-0.1,0.1-0.1,0.1-0.2
			c0-0.1,0.1-0.1,0.1-0.2c0.2-0.3,0.3-0.6,0.5-0.8c0.1-0.1,0.1-0.2,0.2-0.4c0,0,0,0,0,0c0.1-0.1,0.1-0.2,0.2-0.3
			c0.3-0.5,0.5-0.9,0.8-1.4c0.1-0.1,0.1-0.2,0.2-0.3c0.2-0.5,0.5-0.9,0.7-1.4c0.1-0.1,0.1-0.2,0.2-0.3c0-0.1,0.1-0.1,0.1-0.2
			l9.5,1.5l7.1,1.1c1.6-3.4,2.1-4.1,3.3-7.7c1.2-3.6,1.3-4.5,2.1-8.1l-6.3-3.5l-8.5-4.6c0,0,0-0.1,0-0.1c0-0.1,0-0.3,0.1-0.4
			c0.1-0.5,0.2-1,0.3-1.5l0.1-0.4c0.1-0.5,0.2-1,0.3-1.6c0-0.1,0-0.2,0-0.3c0-0.2,0.1-0.5,0.1-0.7c0-0.2,0.1-0.5,0.1-0.7
			c0-0.1,0-0.2,0-0.3c0.1-0.5,0.1-1.1,0.2-1.6c0-0.1,0-0.2,0-0.4c0.1-0.5,0.1-1,0.1-1.6c0-0.1,0-0.3,0-0.4c0,0,0-0.1,0-0.1l9.4-2.1
			l7.1-1.6c0.2-3.7,0.4-4.6,0.2-8.4s-0.4-4.7-1-8.3l-7.2-0.9L2010.5,707.5z M1972.6,720.7c1.3,25.7-18.4,47.5-44.1,48.9
			c-25.7,1.3-47.5-18.4-48.9-44.1c-1.3-25.7,18.4-47.5,44.1-48.9C1949.4,675.3,1971.3,695.1,1972.6,720.7z"/>
	</g>
	<g>
		<path class="st10" d="M1806.9,766.4c0,0-43.6,13.4-35.4,41c8.2,27.6,50.3-15.9,50.3-15.9S1826.6,757,1806.9,766.4z"/>
		<g>
			<path class="st16" d="M1856.9,1476.6c-20.2,57.8-38.6,117-55.9,177.2h-142c10.9-73.6,25.2-147.8,46.1-223.7
				C1756,1444.9,1806.7,1460.3,1856.9,1476.6z"/>
		</g>
		<g>
			<path class="st16" d="M1941,1653.8h-142c-17.3-60.2-35.7-119.3-55.9-177.2c50.3-16.3,101-31.7,151.8-46.5
				C1915.8,1506,1930.1,1580.1,1941,1653.8z"/>
		</g>
		<g>
			<path class="st8" d="M1937.1,1608.1c-45.3-2.7-118.9-29-164.8-19.6c-3.5,0.8-7.4,1.4-11.5,1.9v-98.2l-12.8,99.4
				c-29.9,2.1-68.4-0.3-82.5-5c24.9-137.3,67.9-382.9,74.8-515c2.7-52.9,20.1-81,38.9-95.4c4.6-3.5,9.3-6.2,13.7-8.2
				c31.7-16.2,63.1-17.3,87.5-3.8c20,10.8,35.4,31.2,42.8,60.8c5.5,22,4,39.5,1.8,68.8C1914.7,1233.3,1918.5,1445.9,1937.1,1608.1z"
				/>
		</g>
		<path class="st7" d="M1779.3,976.2l2.7,89.1l3.3,111.8l46.5-104l48.8-109.1c-24.5-13.4-55.8-12.4-87.5,3.8
			C1788.5,970,1783.9,972.6,1779.3,976.2z"/>
		<path class="st7" d="M1873.8,877.8c-30.6,47.1-88.2,63.9-117,45.2c-28.8-18.7-17.8-65.9,12.8-112.9c30.6-47.1,69.5-55.8,98.3-37.1
			C1896.7,791.7,1904.4,830.8,1873.8,877.8z"/>
		<path class="st7" d="M1867,870.1l-58.7-5.7c-0.8,8-6.9,84.5-4,113.4c2.2,8.9,16.8,13,32.7,9.1c14.3-3.5,24.6-12.2,25-20.3l0.1,0
			C1860.3,949.2,1864.2,898.1,1867,870.1z"/>
		<path class="st10" d="M1845.1,894c-8.6-9.4-16.8-0.9-37.6,10.8c-20.8,11.7-58,8.7-60.6-40.1c-1.1-20.6-9.2-5.2-14.5,7.6
			c-3.9,9.3-6.2,19.4-5.4,29.5c1.3,15.6,8.3,26.3,21.1,34.7c19.2,12.5,47.6,13.3,75.5,2.5c14.8-5.7,25.5-19.8,24.6-35.6
			C1848.1,899.4,1847.1,896.1,1845.1,894z"/>
		<path class="st10" d="M1745.3,862.9c0,0,0.7,0.4,2,1.1c10.3,5.5,56.7,31.6,61.5,50.9c5.3,21.6-25-8.4-34.2-22.2
			s-20.3-12-30.2-14.9C1734.4,874.7,1729.9,862.3,1745.3,862.9z"/>
		<path class="st10" d="M1900.1,852.3c0,0,9.7-36.6-6.8-62.8c-16.5-26.2-63.2-53.9-100.1-18.6c0,0-24,27.5,11.7,53.6
			c35.6,26.1,40,2.1,48.2,31.4c8.3,29.2,32.9,24.5,34,30.8L1900.1,852.3z"/>
		<polygon class="st26" points="1782,1065.3 1785.3,1177.1 1831.7,1073.1 1829.9,1005.3 1809.4,1005.3 		"/>
		<path class="st7" d="M1887.8,904.6c-7.1,11-27.1,17.9-35,12.7c-7.9-5.2-4.1-15.3,3-26.3s20.2-17,28.2-11.9
			C1891.8,884.3,1894.9,893.6,1887.8,904.6z"/>
		<path class="st7" d="M1987.2,1536.9c0,0-68.8,73.2-94,71.2c-25.2-2,32.4-79.1,90.8-95.7L1987.2,1536.9z"/>
		<g>
			<path class="st8" d="M1992.4,1551.7c-11.9-11.6-24.8-23.1-37.6-35.2c187.1-175.7,248.6-350.1-61.1-443.1
				c-47.4-14.2-49-26-26-58.3c-6-6.2-6.1-6.1,0,0c23-32.3,34.9-25.4,78.3-3.2C2229.6,1157.3,2229.8,1354.7,1992.4,1551.7z"/>
		</g>
		<path class="st7" d="M1600.3,1513.1c0,0,56.6,83,81.9,84.9c25.2,1.9-19.7-83.2-74.9-108.6L1600.3,1513.1z"/>
		<g>
			<path class="st8" d="M1772,989.6l-6.4,80c-0.4,0.1-0.9,0.1-1.3,0.2c-320.4,43.9-286.7,225.6-129,428.3
				c-14.5,9.9-29.1,19.3-42.6,29c-204-231.4-173.3-426.4,129.4-526.1C1745.9,993,1760.7,987.9,1772,989.6z"/>
		</g>
	</g>
	<g>

			<rect x="1571.5" y="558.1" transform="matrix(0.645 -0.7642 0.7642 0.645 74.2909 1431.6226)" class="st15" width="13.2" height="155.6"/>

			<rect x="1586.8" y="595.7" transform="matrix(0.645 -0.7642 0.7642 0.645 68.6903 1452.1703)" class="st2" width="21.2" height="112.9"/>
		<g>
			<path class="st15" d="M1394.7,481.1c-29.7,35.2-25.2,87.7,9.9,117.4c35.2,29.7,87.7,25.2,117.4-9.9
				c29.7-35.2,25.2-87.7-9.9-117.4C1477,441.5,1424.4,445.9,1394.7,481.1z M1516.4,583.7c-27,32-74.8,36-106.8,9s-36-74.8-9-106.8
				c27-32,74.8-36,106.8-9C1539.3,503.9,1543.4,551.7,1516.4,583.7z"/>

				<ellipse transform="matrix(0.645 -0.7642 0.7642 0.645 109.001 1304.3232)" class="st27" cx="1458.4" cy="534.8" rx="75.8" ry="75.8"/>
		</g>
	</g>
	<g>
		<g>
			<polygon class="st28" points="1885.2,418.2 1803.6,446.6 1837.9,545.1 1936.5,510.8 1908.1,429.3 			"/>
			<polygon class="st29" points="1891.1,435.2 1908.1,429.3 1885.2,418.2 			"/>
		</g>
		<g>

				<rect x="1842.7" y="451.4" transform="matrix(0.9444 -0.3287 0.3287 0.9444 -53.4426 641.3262)" class="st7" width="54.7" height="54.7"/>
			<g>
				<line class="st30" x1="1852.1" y1="476.5" x2="1872.5" y2="486.4"/>
				<line class="st30" x1="1882.8" y1="465.8" x2="1872.9" y2="486.3"/>
			</g>
		</g>
	</g>
	<g>
		<g>
			<polygon class="st31" points="1975.5,486.2 1889.1,486.2 1889.1,590.6 1993.4,590.6 1993.4,504.2 			"/>
			<polygon class="st2" points="1975.5,504.2 1993.4,504.2 1975.5,486.2 			"/>
		</g>
		<g>
			<rect x="1913.9" y="511" class="st7" width="54.7" height="54.7"/>
			<g>
				<line class="st32" x1="1930.6" y1="527.8" x2="1951.9" y2="549.1"/>
				<line class="st32" x1="1951.9" y1="527.8" x2="1930.6" y2="549.1"/>
			</g>
		</g>
	</g>
	<g>
		<g>
			<polygon class="st21" points="2102.4,445.2 2016,445.2 2016,549.5 2120.4,549.5 2120.4,463.2 			"/>
			<polygon class="st20" points="2102.4,463.2 2120.4,463.2 2102.4,445.2 			"/>
		</g>
		<g>
			<rect x="2030.1" y="470.2" class="st20" width="76.2" height="6"/>
			<rect x="2030.1" y="480.8" class="st20" width="76.2" height="6"/>
			<rect x="2030.1" y="491.4" class="st20" width="76.2" height="6"/>
			<rect x="2030.1" y="502.1" class="st20" width="76.2" height="6"/>
			<rect x="2030.1" y="512.7" class="st20" width="76.2" height="6"/>
			<rect x="2030.1" y="523.4" class="st20" width="57" height="6"/>
		</g>
	</g>
	<path class="st7" d="M2028.7,626.6c16.5,0,29.9-13.4,29.9-29.9c0,16.5,13.4,29.9,29.9,29.9c-16.5,0-29.9,13.4-29.9,29.9
		C2058.6,640,2045.2,626.6,2028.7,626.6z"/>
	<path class="st7" d="M2011.7,398.3c9.2,0,16.7-7.5,16.7-16.7c0,9.2,7.5,16.7,16.7,16.7c-9.2,0-16.7,7.5-16.7,16.7
		C2028.4,405.8,2020.9,398.3,2011.7,398.3z"/>
	<path class="st7" d="M1718.3,744.7c9.2,0,16.7-7.5,16.7-16.7c0,9.2,7.5,16.7,16.7,16.7c-9.2,0-16.7,7.5-16.7,16.7
		C1735,752.2,1727.5,744.7,1718.3,744.7z"/>
	<g>
		<path class="st28" d="M698.6,1590.6c-79.8,0-147,53.5-167.9,126.6h335.8C845.6,1644.1,778.4,1590.6,698.6,1590.6z"/>
		<path class="st28" d="M1156.6,1590.6c-79.8,0-147,53.5-167.9,126.6h335.7C1303.6,1644.1,1236.4,1590.6,1156.6,1590.6z"/>
		<path class="st28" d="M938.4,1536.4c-113.9,0-210,76.4-239.8,180.8h479.6C1148.4,1612.8,1052.3,1536.4,938.4,1536.4z"/>
	</g>
	<path class="st7" d="M2148.3,1068.2c9.2,0,16.7-7.5,16.7-16.7c0,9.2,7.5,16.7,16.7,16.7c-9.2,0-16.7,7.5-16.7,16.7
		C2165,1075.7,2157.5,1068.2,2148.3,1068.2z"/>
	<path class="st7" d="M588.6,1112.7c9.2,0,16.7-7.5,16.7-16.7c0,9.2,7.5,16.7,16.7,16.7c-9.2,0-16.7,7.5-16.7,16.7
		C605.3,1120.2,597.8,1112.7,588.6,1112.7z"/>
	<path class="st7" d="M2409.5,704.9c9.2,0,16.7-7.5,16.7-16.7c0,9.2,7.5,16.7,16.7,16.7c-9.2,0-16.7,7.5-16.7,16.7
		C2426.2,712.4,2418.7,704.9,2409.5,704.9z"/>
	<path class="st7" d="M514,1560.3c9.2,0,16.7-7.5,16.7-16.7c0,9.2,7.5,16.7,16.7,16.7c-9.2,0-16.7,7.5-16.7,16.7
		C530.7,1567.7,523.3,1560.3,514,1560.3z"/>
	<path class="st7" d="M3140,1504.6c9.2,0,16.7-7.5,16.7-16.7c0,9.2,7.5,16.7,16.7,16.7c-9.2,0-16.7,7.5-16.7,16.7
		C3156.7,1512.1,3149.2,1504.6,3140,1504.6z"/>
	<path class="st7" d="M1543.5,491.4c9.2,0,16.7-7.5,16.7-16.7c0,9.2,7.5,16.7,16.7,16.7c-9.2,0-16.7,7.5-16.7,16.7
		C1560.2,498.9,1552.8,491.4,1543.5,491.4z"/>
	<g>
		<path class="st33" d="M2231.5,1650c-53.5,0-98.7,35.9-112.7,85h225.4C2330.1,1685.9,2285,1650,2231.5,1650z"/>
		<path class="st33" d="M2538.9,1650c-53.5,0-98.7,35.9-112.7,85h225.4C2637.6,1685.9,2592.4,1650,2538.9,1650z"/>
		<path class="st33" d="M2392.4,1613.6c-76.5,0-141,51.3-161,121.3h321.9C2533.4,1664.9,2468.9,1613.6,2392.4,1613.6z"/>
	</g>
</g>
</svg>
