<?xml version="1.0" encoding="utf-8"?>
<!-- Generator: Adobe Illustrator 21.0.0, SVG Export Plug-In . SVG Version: 6.00 Build 0)  -->
<svg version="1.1" id="Layer_1" xmlns="http://www.w3.org/2000/svg" xmlns:xlink="http://www.w3.org/1999/xlink" x="0px" y="0px"
	 viewBox="0 0 3600 1884" style="enable-background:new 0 0 3600 1884;" xml:space="preserve">
<style type="text/css">
	.st0{fill:#E6E6E6;}
	.st1{fill:#FF9894;}
	.st2{fill:#C4A997;}
	.st3{fill:#2D334A;}
	.st4{fill:#FFBDBA;}
	.st5{fill:#F0F0F0;}
	.st6{fill:#AFB0B9;}
	.st7{fill:#FFFFFF;}
	.st8{fill:#3C3F57;}
	.st9{fill:#ADB1CC;}
	.st10{fill:#515575;}
	.st11{fill:#A4A2BD;}
	.st12{fill:#8987A8;}
	.st13{fill:#6B698C;}
	.st14{fill:#D4D4D4;}
	.st15{fill:#458FB0;}
	.st16{fill:none;stroke:#494C69;stroke-width:7;stroke-miterlimit:10;}
	.st17{opacity:0.6;}
	.st18{fill:none;stroke:#AFB0B9;stroke-width:7;stroke-linecap:round;stroke-linejoin:round;stroke-miterlimit:10;}
	.st19{fill:none;stroke:#FFFFFF;stroke-width:7;stroke-miterlimit:10;}
	.st20{fill:none;stroke:#3C3F57;stroke-width:13;stroke-linecap:round;stroke-linejoin:round;stroke-miterlimit:10;}
	.st21{fill:none;stroke:#3C3F57;stroke-width:12;stroke-miterlimit:10;}
	.st22{fill:none;stroke:#3C3F57;stroke-width:9;stroke-miterlimit:10;}
	.st23{fill:#636785;}
	.st24{fill:none;stroke:#FF9894;stroke-width:3;stroke-miterlimit:10;}
	.st25{fill:none;stroke:#3C3F57;stroke-width:24;stroke-miterlimit:10;}
	.st26{fill:#A8E3E6;}
	.st27{fill:#BCF0F2;}
	.st28{fill:none;stroke:#FFFFFF;stroke-width:7;stroke-linecap:round;stroke-linejoin:round;stroke-miterlimit:10;}
	.st29{fill:none;stroke:#A4A2BD;stroke-width:1.7646;stroke-miterlimit:10;}
</style>
<g>
	<path class="st0" d="M3374.1,1351.5c0-418.7-339.4-758.2-758.2-758.2c-30.2,0-59.9,1.8-89.2,5.2c0-1.3,0-2.5,0-3.8
		c0-141-114.3-255.3-255.3-255.3c-52,0-100.4,15.6-140.8,42.3c-133.2-74.6-286.8-117.2-450.3-117.2
		c-439.8,0-807.6,307.7-900.1,719.5c-12.1-2.5-24.6-3.9-37.5-3.9c-100.4,0-181.7,81.4-181.7,181.7c0,12.5,1.3,24.6,3.7,36.4
		c-172.7,44.4-306.5,186-339.5,363h3119.4C3363.8,1494.7,3374.1,1424.3,3374.1,1351.5z"/>
	<g>
		<g>

				<ellipse transform="matrix(0.9619 -0.2735 0.2735 0.9619 -196.1191 407.3996)" class="st1" cx="1363.3" cy="907.2" rx="41" ry="53"/>
			<path class="st2" d="M1635.9,1056.9c0,0-8.8-108.5,11.1-127.2c20-18.8,40,83.5,10.9,142.5L1635.9,1056.9z"/>
			<path class="st3" d="M1307.8,812.8c-20.7-0.3-44.9,15-50.9,35.9c-6,20.8,10.8,41.2,30.5,46.9s58.1-17,64.1-37.8
				C1357.5,836.8,1333.9,813.2,1307.8,812.8z"/>
			<path class="st3" d="M1293.9,1003.3c-27.4-62.8-106.8-115-177.7-104.5c-70.9,10.5-109.1,89-99.1,156.6
				c10,67.6,102.6,154.1,209.7,146.1C1298.3,1196.3,1328.6,1082.9,1293.9,1003.3z"/>
			<path class="st3" d="M1209.6,1094.4c-32.7-75-127.5-137.3-212.2-124.7c-84.7,12.5-130.2,106.3-118.3,187s122.5,184,250.4,174.4
				C1214.9,1324.7,1251.1,1189.4,1209.6,1094.4z"/>
			<path class="st3" d="M1304.9,935.4c-13.9-32.9-53.6-60.4-89-55.2c-35.3,5.2-54.1,46.1-48.8,81.4c5.2,35.3,65.8,79.9,101.1,74.6
				S1322.5,977,1304.9,935.4z"/>
			<path class="st2" d="M1228.5,961.4c30.9,55.9,94.8,79.7,129,60.8s25.6-73.3-5.3-129.1c-30.9-55.9-74.3-69-108.4-50.1
				C1209.6,861.7,1197.6,905.5,1228.5,961.4z"/>
			<path class="st2" d="M1213.9,994.5c7.2,13,29.3,22.5,38.7,17.3c9.4-5.2,5.9-17.1-1.2-30.1c-7.2-13-21.5-21-31-15.8
				C1211,971.2,1206.8,981.5,1213.9,994.5z"/>
			<path class="st3" d="M1200.7,930.3c0,0-8-42.3,12.9-70.7c20.9-28.4,76.1-56,115.1-12.9c0,0,24.9,33.1-17.6,59.8
				c-42.5,26.7-45.5-0.8-57.3,31.7c-11.8,32.5-39.3,25.1-41.1,32.2L1200.7,930.3z"/>
			<g>
				<path class="st4" d="M1382.5,1670.8c-16-108.8-56.1-293.2-41.4-327.6c41.2-96.9,21.3-85.7,13.8-139.2
					c-7.5-53.6-11.8-105.3-38.2-127.5c-0.4-0.4-0.9-0.7-1.3-1.1c-22.8-18.7-85.9-52.9-148.1,79.4c-37.6,79.9-53.4,385-53.4,385
					c-9.8,66.7-21.8,132.3-35.5,196.8c34.2,40.3,88,64.3,140.9,60.5c29-2.1,57-11.6,85.9-14.7c35.2-3.8,70.5,2.2,105,11.2
					c-1.7-6.1-3.3-12.3-5.1-18.4C1395.5,1741,1387.7,1706.1,1382.5,1670.8z"/>
			</g>
			<path class="st2" d="M1249.2,955.4l67,1.4c-0.2,9.2-3.4,96.4-10.6,128.6c-3.6,9.7-20.7,12.4-38.1,5.9
				c-15.7-5.8-26.2-17-25.6-26.3l-0.1,0C1246.2,1045.7,1248.6,987.5,1249.2,955.4z"/>
			<path class="st2" d="M1096.1,1564c0,0,109.8,31.5,120.9,58.1c11.1,26.6-96.9,8.4-144-42L1096.1,1564z"/>
			<path class="st4" d="M1323.7,1085.6c0,0,139.3,122.4,163.5,150.1c0,0,100.1-54.9,142.1-190.8c0,0,31.2,0.8,42.3,0
				c11-0.8-68,232.4-175.5,273.4c0,0-100-22.5-161.5-106.3C1273,1128.1,1323.7,1085.6,1323.7,1085.6z"/>
			<path class="st4" d="M983.6,1357.7l125.6,204.9l-29.6,36.5c0,0-152.8-138.7-174.7-238c-3.1-14,0.3-28.6,9.2-39.9
				c29.6-37.6,117.8-135.8,295-230l24.8,51.9l11.4,26.2C1245.4,1169.3,1222.9,1182.6,983.6,1357.7z"/>
			<path class="st1" d="M1205.8,913.4c0,0,21.2-117.5,112.4-99.5c0,0-18.7-25.9-67.2-1c-48.5,24.9-61.3,74.5-62.4,91.4L1205.8,913.4
				z"/>

				<ellipse transform="matrix(0.9619 -0.2735 0.2735 0.9619 -214.4899 365.758)" class="st1" cx="1204.8" cy="952.3" rx="41" ry="53"/>

				<ellipse transform="matrix(0.9619 -0.2735 0.2735 0.9619 -216.5229 361.1471)" class="st4" cx="1187.2" cy="957.3" rx="33.6" ry="43.5"/>
		</g>
	</g>
	<g>
		<path class="st5" d="M1828.7,1360.4c-152.2,0-280.5,102.1-320.3,241.5H2149C2109.2,1462.4,1980.8,1360.4,1828.7,1360.4z"/>
		<path class="st5" d="M2702.6,1360.4c-152.2,0-280.5,102.1-320.3,241.5h640.7C2983.1,1462.4,2854.8,1360.4,2702.6,1360.4z"/>
		<path class="st5" d="M2286.2,1256.9c-217.4,0-400.7,145.8-457.6,345h915.1C2687,1402.7,2503.6,1256.9,2286.2,1256.9z"/>
	</g>
	<g>

			<ellipse transform="matrix(0.1358 -0.9907 0.9907 0.1358 1142.4131 3026.6316)" class="st1" cx="2306.1" cy="858.5" rx="46.3" ry="35.9"/>
		<g>
			<path class="st6" d="M2447.2,1560.9c4.5-13.9,8.8-27.6,12.6-41.1c2.6-8.9,5-17.7,7.3-26.4c5.3-19.7,9.9-39,14-58
				c1.9-9,3.7-18,5.4-26.9c4.1-22,7.5-43.6,10.2-64.8c1.2-9.2,2.2-18.2,3.1-27.2c6-58.8,6.8-114.9,4-169.2
				c-1.6-31.7-5.3-59.8-10-84.4c-14.3-73.5-101.1-106-160.4-60.5l-12.8,9.8c-32.8,25.1-48.7,66-42.5,106.9
				c6.7,44.9,2.7,109-24.8,205.8c-1.7,5.9-3.5,12-5.3,18.2c-2.7,8.8-5.6,17.8-8.5,27.2c-4.3,13.1-9,26.8-14,40.9
				c-3,8.5-6.2,17.2-9.6,26.2c-5.9,15.8-12.2,32.2-19.1,49.3c-1.9,4.8-3.9,9.6-5.9,14.5c-1.5,3.8-3.1,7.6-4.7,11.4
				c-3.7,9.1-7.7,18.6-11.8,28.1c-3.6,8.3-7.2,16.8-11.1,25.5c-1.9,4.2-3.8,8.6-5.7,12.9c10.3,11.6,22.1,21.2,36.7,26.4
				c46.3,16.3,100.5-19.1,145,1.4c15.2,7,26.9,19.8,40.7,29.4c10.3,7.2,21.9,12.4,34.1,15.6c8.8-22.1,16.9-43.9,24.3-65.2
				C2441.6,1578.1,2444.5,1569.4,2447.2,1560.9z"/>
		</g>
		<path class="st7" d="M2819,989.4c0,0-9.6-118.2,12.1-138.7c21.8-20.5,43.6,91,11.9,155.3L2819,989.4z"/>
		<path class="st6" d="M2457.3,1007.2c0,0,173.3,146.9,199.7,177.1c0,0,109.1-59.8,154.8-208c0,0,34,0.9,46.1,0
			c12-0.9-74.2,253.3-191.3,298c0,0-109.1-24.5-176.1-115.9C2423.5,1067,2457.3,1007.2,2457.3,1007.2z"/>
		<path class="st7" d="M2125.2,1436.2c0,0,89.5,77.9,88.2,107.7c-1.3,29.8-94.8-34.6-117-102.8L2125.2,1436.2z"/>
		<path class="st6" d="M2371.9,1085.3c0,0-196.8,82.8-278.6,104c0,0,0.7,111.8,52.6,252.9c0,0-51.2,42.7-51.1,30.6
			c0.2-27.3-90.8-231.9-71.6-325.5c0,0,105.5-94,355.5-150.6C2489.3,971.7,2371.9,1085.3,2371.9,1085.3z"/>
		<path class="st3" d="M2325,778.4c0,0-46.2,25.7-30.2,55c16,29.3,53.2-30.2,53.2-30.2S2345.1,763,2325,778.4z"/>
		<path class="st7" d="M2427.8,888.5c-23.3,60.7-84.6,93.7-121.7,79.4c-37.1-14.3-36.1-70.4-12.7-131.1
			c23.3-60.7,65.3-80.1,102.4-65.8C2432.9,785.3,2451.1,827.8,2427.8,888.5z"/>
		<path class="st7" d="M2426,888.9l-68-6.6c-0.9,9.3-8,98-4.6,131.4c2.5,10.3,19.5,15,37.9,10.5c16.6-4,28.6-14.1,29-23.6l0.1,0
			C2418.3,980.6,2422.8,921.5,2426,888.9z"/>
		<path class="st3" d="M2399.1,913.7c-12.1-8.5-19.3,3-40,21.3c-20.7,18.3-63.7,23.8-78.4-30.8c-6.2-23.1-11.6-3.6-14.6,12.1
			c-2.2,11.5-2.3,23.5,1,34.7c5.2,17.4,15.8,27.8,32.3,34.2c24.7,9.5,57.2,3.6,86.2-15.3c15.4-10.1,24.2-28.6,19.3-46.4
			C2403.8,919.1,2401.9,915.6,2399.1,913.7z"/>
		<path class="st3" d="M2278.5,902.5c0,0,0.9,0.2,2.5,0.7c13,3.8,72,22.2,81.9,42.8c11.2,23.2-30.4-3.4-44.1-16.9
			c-13.7-13.5-25.9-8.7-37.9-9.6C2269,918.6,2260.9,905.6,2278.5,902.5z"/>
		<path class="st3" d="M2451.4,853.2c0,0,2.1-43.8-22.9-69.6c-25-25.7-84.6-45.9-118,3.1c0,0-20.5,36.9,26.2,57.9
			c46.7,21,45.8-7.2,62.2,23.9s43.2,19.8,46,26.7L2451.4,853.2z"/>
		<path class="st7" d="M2450.1,915.4c-5.4,14.1-26.4,26.8-36.6,22.9c-10.2-3.9-8.4-16.4-3-30.5c5.4-14.1,18.8-24.2,29-20.2
			C2449.8,891.5,2455.5,901.3,2450.1,915.4z"/>
		<path class="st1" d="M2432.8,864.5c0,0-34.3-109.8-119.3-81.7c0,0,14.7-27,64.1-9c49.3,18,67.5,63.8,70.6,79.9L2432.8,864.5z"/>

			<ellipse transform="matrix(0.1358 -0.9907 0.9907 0.1358 1229.8312 3197.0457)" class="st1" cx="2447.5" cy="893.6" rx="46.3" ry="35.9"/>

			<ellipse transform="matrix(0.1358 -0.9907 0.9907 0.1358 1241.3578 3214.5977)" class="st4" cx="2463.3" cy="895.7" rx="38" ry="29.4"/>
	</g>
	<path class="st8" d="M225.2,1561.3c-5.2,27.7-7.9,56.3-7.9,85.5c0,86.7,23.9,167.9,65.3,237.3h2872.9
		c87.7-88.9,153.6-199.4,189.1-322.7H225.2z"/>
	<g>
		<path class="st9" d="M487.7,278.7c-100,0-184.2,67-210.4,158.6h420.7C672,345.8,587.7,278.7,487.7,278.7z"/>
		<path class="st9" d="M1061.6,278.7c-100,0-184.2,67-210.4,158.6H1272C1245.9,345.8,1161.6,278.7,1061.6,278.7z"/>
		<path class="st9" d="M788.2,210.8c-142.8,0-263.2,95.8-300.5,226.5h601C1051.4,306.6,931,210.8,788.2,210.8z"/>
	</g>
	<path class="st10" d="M2606.1,1717.3H993.9c-31,0-56.1-25.1-56.1-56.1v0c0-31,25.1-56.1,56.1-56.1h1612.3c31,0,56.1,25.1,56.1,56.1
		v0C2662.2,1692.2,2637.1,1717.3,2606.1,1717.3z"/>
	<g>
		<g>
			<path class="st11" d="M455.2,1209.4c0,0-13.8-18.2-10-45.7c3.7-27.5-19.2-33.8-27.5-23.1C409.3,1151.3,411.1,1180.6,455.2,1209.4
				z"/>
		</g>
		<g>
			<path class="st11" d="M478.5,1219.8c0,0,1-22.8,21.4-41.6s6.8-38.3-6.5-35.3S462.8,1169.4,478.5,1219.8z"/>
		</g>
		<g>
			<path class="st11" d="M476.7,1222.6c0,0-22.3,4.9-37.2,28.3c-15,23.4-36.5,13.3-35.9-0.2C404.2,1237.1,424.4,1216,476.7,1222.6z"
				/>
		</g>
		<g>
			<path class="st11" d="M515,1251.7c0,0-22.3,4.9-37.2,28.3c-15,23.4-36.5,13.3-35.9-0.2S462.7,1245.1,515,1251.7z"/>
		</g>
		<g>
			<path class="st11" d="M542.5,1286.7c0,0-22.3,4.9-37.2,28.3c-15,23.4-36.5,13.3-35.9-0.2C470,1301.3,490.2,1280.1,542.5,1286.7z"
				/>
		</g>
		<g>
			<path class="st11" d="M574.8,1331.5c0,0-22.3,4.9-37.2,28.3c-15,23.4-36.5,13.3-35.9-0.2C502.2,1346.1,522.4,1324.9,574.8,1331.5
				z"/>
		</g>
		<g>
			<path class="st11" d="M514.6,1251.5c0,0,1-22.8,21.4-41.6c20.4-18.8,6.8-38.3-6.5-35.3C516.3,1177.5,499,1201.2,514.6,1251.5z"/>
		</g>
		<g>
			<path class="st11" d="M547.1,1289.4c0,0,1-22.8,21.4-41.6c20.4-18.8,6.8-38.3-6.5-35.3C548.7,1215.4,531.4,1239,547.1,1289.4z"/>
		</g>
		<g>
			<path class="st11" d="M576.1,1330.2c0,0,1-22.8,21.4-41.6c20.4-18.8,6.8-38.3-6.5-35.3S560.4,1279.8,576.1,1330.2z"/>
		</g>
		<g>
			<path class="st11" d="M660.1,1527.7c-1.2,0.2-2.4-0.6-2.6-1.8c-0.1-0.6-13.4-57.4-45.9-125.3C581.6,1338,528.7,1253,447,1203.3
				c-1.1-0.7-1.5-2.1-0.8-3.2c0.7-1.1,2.1-1.5,3.2-0.8c82.8,50.3,136.2,136.2,166.4,199.4c32.7,68.4,46.1,125.6,46.2,126.2
				c0.3,1.3-0.5,2.5-1.8,2.8C660.2,1527.7,660.2,1527.7,660.1,1527.7z"/>
		</g>
	</g>
	<g>
		<path class="st9" d="M2773.8,304.8c-80,0-147.4,53.6-168.3,126.9h336.6C2921.1,358.4,2853.7,304.8,2773.8,304.8z"/>
		<path class="st9" d="M3232.9,304.8c-80,0-147.4,53.6-168.3,126.9h336.6C3380.3,358.4,3312.9,304.8,3232.9,304.8z"/>
		<path class="st9" d="M3014.1,250.4c-114.2,0-210.5,76.6-240.4,181.2h480.8C3224.7,327,3128.4,250.4,3014.1,250.4z"/>
	</g>
	<g>
		<path class="st12" d="M257.6,412.5c-38.8,0-71.5,26-81.7,61.6h163.4C329.1,438.6,296.4,412.5,257.6,412.5z"/>
		<path class="st12" d="M480.4,412.5c-38.8,0-71.5,26-81.7,61.6h163.4C552,438.6,519.2,412.5,480.4,412.5z"/>
		<path class="st12" d="M374.2,386.1c-55.4,0-102.2,37.2-116.7,88h233.4C476.4,423.3,429.7,386.1,374.2,386.1z"/>
	</g>
	<g>
		<path class="st13" d="M2387.4,216.2c-29.6,0-54.5,19.8-62.2,46.9h124.5C2441.9,236,2416.9,216.2,2387.4,216.2z"/>
		<path class="st13" d="M2557.2,216.2c-29.6,0-54.5,19.8-62.2,46.9h124.5C2611.7,236,2586.7,216.2,2557.2,216.2z"/>
		<path class="st13" d="M2476.3,196.1c-42.2,0-77.9,28.3-88.9,67h177.8C2554.1,224.4,2518.5,196.1,2476.3,196.1z"/>
	</g>
	<g>
		<path class="st14" d="M2571.4,676.4c-31.6,0-58.3,21.2-66.6,50.2H2638C2629.7,697.6,2603,676.4,2571.4,676.4z"/>
		<path class="st14" d="M2753.1,676.4c-31.6,0-58.3,21.2-66.6,50.2h133.2C2811.4,697.6,2784.7,676.4,2753.1,676.4z"/>
		<path class="st14" d="M2666.5,654.9c-45.2,0-83.3,30.3-95.1,71.7h190.3C2749.8,685.2,2711.7,654.9,2666.5,654.9z"/>
	</g>
	<g>
		<path class="st11" d="M528.4,1449.8c-97.5,0-179.8,65.4-205.3,154.8h410.6C708.2,1515.3,626,1449.8,528.4,1449.8z"/>
		<path class="st11" d="M1088.5,1449.8c-97.5,0-179.8,65.4-205.3,154.8h410.6C1268.3,1515.3,1186,1449.8,1088.5,1449.8z"/>
		<path class="st11" d="M821.7,1383.5c-139.3,0-256.8,93.4-293.2,221.1h586.5C1078.5,1477,961,1383.5,821.7,1383.5z"/>
	</g>
	<g>
		<path class="st8" d="M3025.1,418c-30,0-55.4,20.1-63.2,47.7h126.5C3080.5,438.2,3055.1,418,3025.1,418z"/>
		<path class="st8" d="M3197.6,418c-30,0-55.4,20.1-63.2,47.7h126.5C3253,438.2,3227.7,418,3197.6,418z"/>
		<path class="st8" d="M3115.4,397.6c-42.9,0-79.1,28.8-90.3,68.1h180.7C3194.5,426.4,3158.3,397.6,3115.4,397.6z"/>
	</g>
	<g>
		<path class="st5" d="M1008.9,740.6c-24.2,0-44.7,16.3-51,38.5h102.1C1053.5,756.9,1033.1,740.6,1008.9,740.6z"/>
		<path class="st5" d="M1148.1,740.6c-24.2,0-44.7,16.3-51,38.5h102.1C1192.8,756.9,1172.3,740.6,1148.1,740.6z"/>
		<path class="st5" d="M1081.7,724.2c-34.6,0-63.8,23.2-72.9,54.9h145.8C1145.6,747.4,1116.4,724.2,1081.7,724.2z"/>
	</g>
	<g>
		<path class="st15" d="M548,1714.3c-26,0-48,17.5-54.8,41.3h109.6C595.9,1731.8,574,1714.3,548,1714.3z"/>
		<path class="st15" d="M476.8,1696.6c-37.2,0-68.5,24.9-78.3,59H555C545.3,1721.6,513.9,1696.6,476.8,1696.6z"/>
	</g>
	<g>
		<path class="st4" d="M2518.3,1663.6c-17.1,0-31.5,11.5-36,27.1h71.9C2549.8,1675.1,2535.4,1663.6,2518.3,1663.6z"/>
		<path class="st4" d="M2471.6,1652c-24.4,0-45,16.4-51.4,38.7H2523C2516.6,1668.3,2496,1652,2471.6,1652z"/>
	</g>
	<g>
		<path class="st12" d="M721.7,1568.4c-40.5,0-74.7,27.2-85.3,64.3h170.7C796.5,1595.6,762.3,1568.4,721.7,1568.4z"/>
		<path class="st12" d="M954.5,1568.4c-40.5,0-74.7,27.2-85.3,64.3h170.7C1029.3,1595.6,995.1,1568.4,954.5,1568.4z"/>
		<path class="st12" d="M843.6,1540.8c-57.9,0-106.7,38.8-121.9,91.9h243.8C950.4,1579.7,901.5,1540.8,843.6,1540.8z"/>
	</g>
	<g>
		<g>
			<path class="st11" d="M640.5,1038.7c0,0-8.8-26,5.8-56c14.7-30-9.1-45.9-22.7-36.8C610.1,955,601,989.1,640.5,1038.7z"/>
		</g>
		<g>
			<path class="st11" d="M663.1,1059.3c0,0,9.7-25.6,40.2-39.4c30.4-13.7,22.2-41.1,6-42.8C693,975.5,664.3,995.9,663.1,1059.3z"/>
		</g>
		<g>
			<path class="st11" d="M660,1061.9c0,0-27.3-2.8-53.2,18.2c-25.9,21-46.7,1.4-40.9-13.8S602.8,1034.5,660,1061.9z"/>
		</g>
		<g>
			<path class="st11" d="M692.7,1109.7c0,0-27.3-2.8-53.2,18.2c-25.9,21-46.7,1.4-40.9-13.8S635.5,1082.3,692.7,1109.7z"/>
		</g>
		<g>
			<path class="st11" d="M710.9,1160.1c0,0-27.3-2.8-53.2,18.2c-25.9,21-46.7,1.4-40.9-13.8S653.7,1132.7,710.9,1160.1z"/>
		</g>
		<g>
			<path class="st11" d="M730.7,1223.4c0,0-27.3-2.8-53.2,18.2c-25.9,21-46.7,1.4-40.9-13.8C642.3,1212.5,673.5,1196,730.7,1223.4z"
				/>
		</g>
		<g>
			<path class="st11" d="M692.3,1109.3c0,0,9.7-25.6,40.2-39.4c30.4-13.7,22.2-41.1,6-42.8C722.3,1025.5,693.6,1045.9,692.3,1109.3z
				"/>
		</g>
		<g>
			<path class="st11" d="M715,1164.8c0,0,9.7-25.6,40.2-39.4c30.4-13.7,22.2-41.1,6-42.8C745,1081,716.2,1101.4,715,1164.8z"/>
		</g>
		<g>
			<path class="st11" d="M732.7,1222.4c0,0,9.7-25.6,40.2-39.4c30.4-13.7,22.2-41.1,6-42.8C762.7,1138.5,733.9,1158.9,732.7,1222.4z
				"/>
		</g>
		<g>
			<path class="st11" d="M753.8,1479.7c-1.4-0.3-2.5-1.6-2.3-3.1c0.1-0.7,6.4-70.6-4.9-160.5c-10.5-82.8-38.6-199.8-113.1-287.6
				c-1-1.2-0.9-3,0.3-4c1.2-1,3-0.9,4,0.3c75.4,88.8,103.9,207.1,114.4,290.7c11.4,90.4,5,160.9,4.9,161.6c-0.1,1.6-1.5,2.7-3.1,2.6
				C753.9,1479.8,753.8,1479.8,753.8,1479.7z"/>
		</g>
	</g>
	<path class="st16" d="M2265.6,1442.6"/>
	<g>
		<g>
			<g class="st17">
				<path class="st18" d="M1550.4,1432.4c0-15.4,6.8-15.4,6.8-30.8c0-15.4-6.8-15.4-6.8-30.8c0-15.4,6.8-15.4,6.8-30.8
					c0-15.4-6.8-15.4-6.8-30.8"/>
				<path class="st18" d="M1530.3,1494c0-15.4,6.8-15.4,6.8-30.8c0-15.4-6.8-15.4-6.8-30.8c0-15.4,6.8-15.4,6.8-30.8
					c0-15.4-6.8-15.4-6.8-30.8"/>
			</g>
			<g>
				<g>
					<path class="st7" d="M1623.5,1491c0,32.8-10.5,67.7-27.2,92.8c-6,9-12.7,16.7-20.1,22.6h-64.6c-7.4-5.9-14.1-13.6-20.1-22.6
						c-16.7-25.1-27.2-60-27.2-92.8c0-3,0.1-6,0.3-8.9h158.7C1623.3,1485,1623.5,1487.9,1623.5,1491z"/>
				</g>
				<path class="st19" d="M1471.4,1511.5c6.1,14.4,7.8,31.4-2.1,35.6s-27.5-6-33.6-20.4s-3.1-29.5,6.8-33.7
					C1452.3,1488.8,1465.2,1497.1,1471.4,1511.5z"/>
			</g>
		</g>
		<g>
			<path class="st7" d="M1599.6,1615h-113.3c-12.7,0-23-10.3-23-23l0,0h159.3l0,0C1622.6,1604.7,1612.3,1615,1599.6,1615z"/>
			<rect x="1500.5" y="1602.4" class="st7" width="84.9" height="18.5"/>
		</g>
	</g>
	<g>
		<path class="st2" d="M1097.4,1563.6c0,0,109.8,31.5,120.9,58.1c11.1,26.6-96.9,8.4-144-42L1097.4,1563.6z"/>
		<path class="st4" d="M984.9,1357.4l125.6,204.9l-29.6,36.5c0,0-152.8-138.7-174.7-238c-3.1-14,0.3-28.6,9.2-39.9
			c29.6-37.6,117.8-135.8,295-230l24.8,51.9l11.4,26.2C1246.7,1168.9,1224.2,1182.2,984.9,1357.4z"/>
	</g>
	<path class="st7" d="M1933,498.9c4.7,63.1-42.7,118-105.8,122.7l-0.1,0c0.1,0.8,0.2,1.7,0.3,2.5c2.7,36.5-24.7,68.3-61.2,71
		c-22.5,1.7-43.1-8.1-56.3-24.3c-27.8,23.3-63,38.5-101.9,41.4c-61.5,4.5-118-22.5-153.7-67.3c-17.4,35.1-52.3,60.3-94.2,63.4
		c-63.1,4.7-118-42.7-122.7-105.8c-0.2-3.2-0.3-6.3-0.3-9.5c0.5-59,46.2-108.8,106.1-113.2c8.1-0.6,16.1-0.3,23.9,0.7
		c-1.4-4.8-2.3-9.9-2.7-15.1c-3.1-41.5,28.1-77.7,69.6-80.7c16.6-1.2,32.4,3,45.5,11.3c27.8-23.4,63-38.5,102-41.4
		c63.3-4.7,121.3,24.1,156.8,71.3c18.7-18.5,43.8-30.6,72-32.7c62.6-4.6,117.1,41.9,122.5,104.2C1933,497.8,1933,498.3,1933,498.9z"
		/>
	<path class="st7" d="M1543.3,603c0.4,2,0.8,4,1.1,6c18.5,107.4-31.3,210.7-118,265.5c113.4-44.2,215.2-163.4,193.7-288
		c-0.5-2.6-1-5.3-1.5-7.9L1543.3,603z"/>
	<path class="st7" d="M2178.3,551.4c-0.6,1.9-1.1,3.9-1.7,5.8c-28.7,105.1,10.9,212.8,92,275.6C2160,778,2070.1,649.6,2103.4,527.6
		c0.7-2.6,1.5-5.2,2.2-7.7L2178.3,551.4z"/>
	<g>
		<line class="st20" x1="1880.4" y1="664.3" x2="1917.9" y2="623.3"/>
		<line class="st21" x1="1759.3" y1="1580.6" x2="1759.3" y2="806.4"/>
		<line class="st22" x1="1551.4" y1="1023.9" x2="1917.9" y2="623.3"/>
		<g>
			<path class="st1" d="M1635.4,1084.4l-18.5-4.7c-2.6-0.7-4.1-3.3-3.5-5.8l0.2-0.7c0.7-2.6,3.3-4.1,5.8-3.5l18.5,4.7
				c2.6,0.7,4.1,3.3,3.5,5.8l-0.2,0.7C1640.6,1083.5,1638,1085.1,1635.4,1084.4z"/>
			<g>
				<polygon class="st23" points="1497.3,1024.4 1487.9,1061.3 1602.4,1086.4 1609.8,1056.9 				"/>
				<path class="st1" d="M1622.7,1060.6l-12.8-3.7l-7.5,29.5l13,2.9c2.5,0.5,5-1,5.6-3.4l4.9-19.5
					C1626.5,1063.8,1625.1,1061.3,1622.7,1060.6z"/>
			</g>
			<path class="st8" d="M1494,1076.2l-53.3-13.5c-15.4-3.9-24.8-19.6-20.9-35.1l1.5-6c3.9-15.4,19.6-24.8,35.1-20.9l53.3,13.5
				c9.6,2.4,15.4,12.2,13,21.8l-6.9,27.2C1513.4,1072.8,1503.6,1078.6,1494,1076.2z"/>
		</g>
		<path class="st10" d="M1553.3,1050.2L1553.3,1050.2c-4.1,0-7.4-3.3-7.4-7.4v-33.3c0-4.1,3.3-7.4,7.4-7.4l0,0
			c4.1,0,7.4,3.3,7.4,7.4v33.3C1560.7,1046.9,1557.4,1050.2,1553.3,1050.2z"/>
		<path class="st24" d="M1641.3,1081c0,0,80.4,62.5,41.8-160c-10.1-58.2,10.3-107.6,44.4-125.4s52.8,8.6,52.3,32.7
			s-21.5,60.5-31.9,84.5c-13.2,30.4-11.5,90.9,23.1,158.3c34.6,67.4-8,202.2-25.7,267.5c-17.7,65.2-10.5,222.6-10.5,222.6"/>
		<line class="st21" x1="1759.3" y1="1152.9" x2="1759.3" y2="1002.5"/>
		<line class="st25" x1="1721.7" y1="837.8" x2="1787" y2="766.3"/>
	</g>
	<g>
		<line class="st20" x1="1991.9" y1="637.2" x2="1969.6" y2="586.2"/>
		<line class="st21" x1="2067" y1="1580.6" x2="2067" y2="806.4"/>
		<line class="st22" x1="2187.1" y1="1083.7" x2="1969.6" y2="586.2"/>
		<g>
			<path class="st1" d="M2112.3,1152.2l17.5-7.7c2.4-1.1,3.5-3.9,2.4-6.3l-0.3-0.7c-1.1-2.4-3.9-3.5-6.3-2.4l-17.5,7.7
				c-2.4,1.1-3.5,3.9-2.4,6.3l0.3,0.7C2107,1152.2,2109.8,1153.3,2112.3,1152.2z"/>
			<g>
				<polygon class="st23" points="2238.5,1069.9 2253.9,1104.8 2145.2,1148.6 2132.9,1120.8 				"/>
				<path class="st1" d="M2120.9,1126.6l12-5.8l12.3,27.8l-12.4,5c-2.4,1-5-0.1-6.1-2.5l-8.1-18.4
					C2117.6,1130.4,2118.6,1127.7,2120.9,1126.6z"/>
			</g>
			<path class="st8" d="M2250.3,1120.4l50.3-22.2c14.6-6.4,21.2-23.5,14.7-38.1l-2.5-5.6c-6.4-14.6-23.5-21.2-38.1-14.7l-50.3,22.2
				c-9,4-13.1,14.6-9.1,23.6l11.4,25.7C2230.7,1120.4,2241.3,1124.4,2250.3,1120.4z"/>
		</g>
		<path class="st10" d="M2175,1108.9L2175,1108.9c3.9,1.3,8-0.8,9.3-4.7l10.4-31.7c1.3-3.9-0.8-8-4.7-9.3v0c-3.9-1.3-8,0.8-9.3,4.7
			l-10.4,31.7C2169,1103.5,2171.1,1107.6,2175,1108.9z"/>
		<path class="st24" d="M2091.7,1561.3c0,0,7.2-157.3-10.5-222.6c-17.7-65.2-60.3-200.1-25.7-267.5c34.6-67.4,36.2-127.9,23.1-158.3
			c-10.4-24-31.5-60.4-31.9-84.5c-0.5-24.1,18.3-50.5,52.3-32.7c31.2,16.2,30,52.1,36.6,103.8c0,0,10.9,62.3-5.7,67.4
			c-11.8,3.5-5.3-19.7-5.3-19.7"/>
		<line class="st21" x1="2067" y1="1152.9" x2="2067" y2="1002.5"/>
		<line class="st25" x1="2086.1" y1="852.6" x2="2047.3" y2="763.9"/>
		<path class="st24" d="M2127.1,943c0,0,6.7-12.7,15.5-7.8c12.2,6.7,11.3,55.9-0.8,62.9c-7.6,4.4-7.5-12.3-3.6-18.8"/>
		<path class="st24" d="M2142.2,975c0,0,6.3-13.2,14.4-4.9c6.6,6.7,13.5,53.5-11.4,83.2c-25,29.7-46.3,44.8-52.2,70.3
			c-6,25.5,5.3,30.1,16,25"/>
		<line class="st22" x1="2129.5" y1="951.8" x2="2123.5" y2="938.2"/>
		<line class="st22" x1="2143.5" y1="984.1" x2="2137.4" y2="970"/>
	</g>
	<circle class="st7" cx="2162.8" cy="623.3" r="128.4"/>
	<circle class="st7" cx="2306" cy="586.2" r="83.4"/>
	<g>
		<g>
			<path class="st5" d="M2865.5,1425.4l-8.2-1c0.1-0.5,6.8-54.7,28.6-129.5c20.1-69,57.6-170.3,121.8-260.8l6.7,4.8
				C2892.8,1210.4,2865.7,1423.3,2865.5,1425.4z"/>
		</g>
		<path class="st5" d="M3028.3,990c-19.1,27.8-24.6,57.1-24.6,57.1s25.4-15.8,44.4-43.6c19.1-27.8,24.6-57.1,24.6-57.1
			S3047.3,962.2,3028.3,990z"/>
		<path class="st5" d="M2963.6,1016.7c6.2,33.1,23.1,57.8,23.1,57.8s6.8-29.1,0.6-62.2c-6.2-33.1-23.1-57.8-23.1-57.8
			S2957.4,983.6,2963.6,1016.7z"/>
		<path class="st5" d="M3048.8,1081.8c33.7-0.6,60.8-13.1,60.8-13.1s-27.5-11.5-61.2-11c-33.7,0.6-60.8,13.1-60.8,13.1
			S3015.1,1082.4,3048.8,1081.8z"/>
		<path class="st5" d="M3018.9,1140.7c32.4,9.2,62,5.1,62,5.1s-23-19-55.5-28.2c-32.4-9.2-62-5.1-62-5.1
			S2986.4,1131.6,3018.9,1140.7z"/>
		<path class="st5" d="M2990,1199.3c33.1,6.3,62.2-0.4,62.2-0.4s-24.6-16.9-57.7-23.2s-62.2,0.4-62.2,0.4S2956.9,1193,2990,1199.3z"
			/>
		<path class="st5" d="M2966.7,1257.1c33.3,5.1,62.2-2.7,62.2-2.7s-25.2-16-58.5-21.1s-62.2,2.7-62.2,2.7
			S2933.3,1252.1,2966.7,1257.1z"/>
		<path class="st5" d="M2946.8,1328.1c32.4,9.2,62,5.1,62,5.1s-23-19-55.5-28.2c-32.4-9.2-62-5.1-62-5.1
			S2914.4,1318.9,2946.8,1328.1z"/>
		<path class="st5" d="M2919.5,1072.3c18.3,28.3,43.2,44.8,43.2,44.8s-4.7-29.5-23-57.8c-18.3-28.3-43.2-44.8-43.2-44.8
			S2901.3,1044,2919.5,1072.3z"/>
		<path class="st5" d="M2852.2,1213.1c28.1,18.6,57.5,23.7,57.5,23.7s-16.1-25.1-44.2-43.8s-57.5-23.7-57.5-23.7
			S2824.1,1194.4,2852.2,1213.1z"/>
		<path class="st5" d="M2828.3,1292.3c31.9,11,61.6,8.6,61.6,8.6s-21.9-20.3-53.8-31.3c-31.9-11-61.6-8.6-61.6-8.6
			S2796.4,1281.3,2828.3,1292.3z"/>
		<path class="st5" d="M2883.5,1141.4c22.4,25.2,49.5,37.7,49.5,37.7s-9.2-28.4-31.6-53.6c-22.4-25.2-49.5-37.7-49.5-37.7
			S2861.1,1116.2,2883.5,1141.4z"/>
	</g>
	<g>
		<g>
			<path class="st5" d="M2797.2,1404.2l4.7-0.9c-0.1-0.3-5.8-31.5-21-74.2c-14-39.4-39.2-96.9-79.6-147.2l-3.7,3
				C2774,1280.3,2797,1403,2797.2,1404.2z"/>
		</g>
		<path class="st5" d="M2687.8,1157c12,15.5,16.2,32.3,16.2,32.3s-15.3-8.3-27.3-23.8s-16.2-32.3-16.2-32.3
			S2675.8,1141.5,2687.8,1157z"/>
		<path class="st5" d="M2726.3,1170.3c-2.5,19.4-11.4,34.3-11.4,34.3s-4.9-16.6-2.4-36.1c2.5-19.4,11.4-34.3,11.4-34.3
			S2728.8,1150.9,2726.3,1170.3z"/>
		<path class="st5" d="M2679,1211c-19.6,0.8-35.8-5.5-35.8-5.5s15.6-7.6,35.2-8.5c19.6-0.8,35.8,5.5,35.8,5.5
			S2698.6,1210.2,2679,1211z"/>
		<path class="st5" d="M2698.4,1244.2c-18.5,6.4-35.8,5.1-35.8,5.1s12.7-11.8,31.2-18.3c18.5-6.4,35.8-5.1,35.8-5.1
			S2716.9,1237.8,2698.4,1244.2z"/>
		<path class="st5" d="M2717.2,1277.2c-19,4.8-36.1,1.9-36.1,1.9s13.7-10.6,32.7-15.4c19-4.8,36.1-1.9,36.1-1.9
			S2736.2,1272.4,2717.2,1277.2z"/>
		<path class="st5" d="M2732.7,1310c-19.2,4.1-36.2,0.6-36.2,0.6s14.1-10.1,33.3-14.2s36.2-0.6,36.2-0.6S2751.9,1305.9,2732.7,1310z
			"/>
		<path class="st5" d="M2746.6,1350.5c-18.5,6.4-35.8,5.1-35.8,5.1s12.7-11.8,31.2-18.3s35.8-5.1,35.8-5.1
			S2765.1,1344.1,2746.6,1350.5z"/>
		<path class="st5" d="M2753.8,1201.1c-9.6,17.1-23.6,27.5-23.6,27.5s1.7-17.3,11.4-34.3s23.6-27.5,23.6-27.5
			S2763.4,1184,2753.8,1201.1z"/>
		<path class="st5" d="M2797.6,1280.5c-15.7,11.8-32.6,15.7-32.6,15.7s8.5-15.1,24.2-26.9s32.6-15.7,32.6-15.7
			S2813.3,1268.7,2797.6,1280.5z"/>
		<path class="st5" d="M2814.2,1325.7c-18.1,7.5-35.5,7.1-35.5,7.1s12-12.5,30.1-20c18.1-7.5,35.5-7.1,35.5-7.1
			S2832.4,1318.2,2814.2,1325.7z"/>
		<path class="st5" d="M2777,1240c-12.1,15.4-27.5,23.6-27.5,23.6s4.4-16.8,16.5-32.2c12.1-15.4,27.5-23.6,27.5-23.6
			S2789.2,1224.6,2777,1240z"/>
	</g>
	<g>
		<path class="st26" d="M3265.8,1473.8c-76.6,101.1-206.4,131.8-206.4,131.8l277.5-366.2C3336.9,1239.4,3342.4,1372.7,3265.8,1473.8
			z"/>
		<path class="st27" d="M3336.9,1239.4l-277.5,366.2c0,0-5.6-133.3,71.1-234.4C3207.1,1270.1,3336.9,1239.4,3336.9,1239.4z"/>
	</g>
	<g>
		<path class="st26" d="M3122,1402.4c-2.9,105.1-75.6,188.4-75.6,188.4l10.4-380.6C3056.9,1210.1,3124.9,1297.3,3122,1402.4z"/>
		<path class="st27" d="M3056.9,1210.1l-10.4,380.6c0,0-68-87.1-65.1-192.2C2984.2,1293.4,3056.9,1210.1,3056.9,1210.1z"/>
	</g>
	<g>
		<g>
			<path class="st15" d="M2916.4,1586.4l6.4,1.1c0-0.3,4.8-28.2,5.5-67.5c0.6-36.3-2.2-90.2-19.1-140.5l-6.1,2.1
				c16.6,49.5,19.4,102.6,18.8,138.4C2921.1,1558.7,2916.4,1586.1,2916.4,1586.4z"/>
		</g>
		<g>

				<ellipse transform="matrix(0.1765 -0.9843 0.9843 0.1765 1036.5438 3990.9705)" class="st15" cx="2903.4" cy="1376" rx="12" ry="12"/>
		</g>
		<g>

				<ellipse transform="matrix(0.1765 -0.9843 0.9843 0.1765 1072.3481 4038.7144)" class="st15" cx="2949.9" cy="1378.5" rx="12" ry="12"/>
		</g>
		<g>

				<ellipse transform="matrix(0.1765 -0.9843 0.9843 0.1765 936.7574 4022.0845)" class="st15" cx="2872.1" cy="1451.2" rx="12" ry="12"/>
		</g>
		<g>
			<path class="st15" d="M2916.9,1438.7l6.2,1.7c0.1-0.3,8.6-31.9,25.3-54.8l-5.2-3.8C2925.8,1405.6,2917.3,1437.3,2916.9,1438.7z"
				/>
		</g>
		<g>
			<path class="st15" d="M2921.8,1480.9l4.6-4.6c-0.7-0.7-17.2-16.9-47.3-27.1l-2.1,6.1C2905.7,1465.1,2921.7,1480.7,2921.8,1480.9z
				"/>
		</g>
	</g>
	<g>
		<g>
			<path class="st15" d="M2883.8,1614l6.3-1.6c-0.1-0.3-7.3-27.6-22.9-63.7c-14.4-33.3-39.3-81.2-75.5-120.1l-4.7,4.4
				c35.6,38.2,60,85.4,74.3,118.2C2876.6,1586.9,2883.7,1613.8,2883.8,1614z"/>
		</g>
		<g>

				<ellipse transform="matrix(0.9692 -0.2462 0.2462 0.9692 -265.8024 729.5635)" class="st15" cx="2785" cy="1427.9" rx="12" ry="12"/>
		</g>
		<g>

				<ellipse transform="matrix(0.9692 -0.2462 0.2462 0.9692 -260.2938 739.6922)" class="st15" cx="2828.3" cy="1410.9" rx="12" ry="12"/>
		</g>
		<g>

				<ellipse transform="matrix(0.9692 -0.2462 0.2462 0.9692 -285.7604 732.693)" class="st15" cx="2787.6" cy="1509.3" rx="12" ry="12"/>
		</g>
		<g>
			<path class="st15" d="M2823.2,1479.3l6.4-1.1c-0.1-0.3-5.4-32.6,0.4-60.4l-6.3-1.3C2817.6,1445.6,2822.9,1478,2823.2,1479.3z"/>
		</g>
		<g>
			<path class="st15" d="M2845.1,1515.7l2.3-6.1c-0.9-0.3-22.6-8.2-54.3-5.1l0.6,6.4C2823.9,1508,2844.9,1515.6,2845.1,1515.7z"/>
		</g>
	</g>
	<g>
		<path class="st15" d="M2906.1,1552.2c-50.2,0-92.6,33.7-105.8,79.7h211.5C2998.7,1585.9,2956.3,1552.2,2906.1,1552.2z"/>
		<path class="st15" d="M3057.1,1518c-71.8,0-132.3,48.1-151.1,113.9h302.1C3189.4,1566.2,3128.9,1518,3057.1,1518z"/>
	</g>
	<g>
		<g>
			<g class="st17">
				<path class="st28" d="M2354,1432.4c0-15.4,6.8-15.4,6.8-30.8c0-15.4-6.8-15.4-6.8-30.8c0-15.4,6.8-15.4,6.8-30.8
					c0-15.4-6.8-15.4-6.8-30.8"/>
				<path class="st28" d="M2333.9,1494c0-15.4,6.8-15.4,6.8-30.8c0-15.4-6.8-15.4-6.8-30.8c0-15.4,6.8-15.4,6.8-30.8
					c0-15.4-6.8-15.4-6.8-30.8"/>
			</g>
			<g>
				<g>
					<path class="st7" d="M2427,1491c0,32.8-10.5,67.7-27.2,92.8c-6,9-12.7,16.7-20.1,22.6H2315c-7.4-5.9-14.1-13.6-20.1-22.6
						c-16.7-25.1-27.2-60-27.2-92.8c0-3,0.1-6,0.3-8.9h158.7C2426.9,1485,2427,1487.9,2427,1491z"/>
				</g>
				<path class="st19" d="M2274.9,1511.5c6.1,14.4,7.8,31.4-2.1,35.6s-27.5-6-33.6-20.4c-6.1-14.4-3.1-29.5,6.8-33.7
					C2255.8,1488.8,2268.8,1497.1,2274.9,1511.5z"/>
			</g>
		</g>
		<g>
			<path class="st7" d="M2403.1,1615h-113.3c-12.7,0-23-10.3-23-23l0,0h159.3l0,0C2426.2,1604.7,2415.9,1615,2403.1,1615z"/>
			<rect x="2304" y="1602.4" class="st7" width="84.9" height="18.5"/>
		</g>
	</g>
	<g>
		<g>
			<path class="st29" d="M1363.4,500.3c1.6,7.4,8.9,13.2,16.5,13c7.6-0.2,13.6-6.5,15.9-13.7c3.7-12.1,0-21.6-4-21
				c-6.4,0.8-3.9,24.4,0.5,28.6c4.4,4.2,11.8,4.1,16.5,0.3c7-5.6,14.9-19.8,14.1-31.4c-0.3-3.7-4.5-16-9.7-8.8
				c-6.4,10.5-2.2,19.4,6.1,34.2c1.4,2.4,4.3,4.5,6.8,5.7c4.3,2,9.6-0.1,12.6-3.8c3-3.6,5.4-9.1,6.8-13.6c1.6-5-1.1-13.5-5-6.3
				c-3.6,6.4-0.2,21.9,9.2,23.5c9.4,1.6,19-6,20.9-15.3c0.8-4,2.2-22.6-2.4-21.9c-6.5,0.7-2.9,26,2.5,31.2c2,1.9,4.6,3.3,7.3,3.1
				c3.8-0.2,6.7-3.4,8.3-6.8s2.1-7.2,3.4-10.8c1.2-3.3,3.2-6.5,6.2-8.5"/>
			<path class="st29" d="M1508,484.5c1.6,7.4,8.9,13.2,16.5,13c7.6-0.2,13.6-6.5,15.9-13.7c3.7-12.1,0-21.6-4-21
				c-6.4,0.8-3.9,24.4,0.5,28.6c4.4,4.2,11.8,4.1,16.5,0.3c7-5.6,14.9-19.8,14.1-31.4c-0.3-3.7-4.5-16-9.7-8.8
				c-6.4,10.5-2.2,19.4,6.1,34.2c1.4,2.4,4.3,4.5,6.8,5.7c4.3,2,9.6-0.1,12.6-3.8c3-3.6,5.4-9.1,6.8-13.6c1.6-5-1.1-13.5-5-6.3
				c-3.6,6.4-0.2,21.9,9.2,23.5c9.4,1.6,19-6,20.9-15.3c0.8-4,2.2-22.6-2.4-21.9c-6.5,0.7-2.9,26,2.5,31.2c2,1.9,4.6,3.3,7.3,3.1
				c3.8-0.2,6.7-3.4,8.3-6.8c1.6-3.4,2.1-7.2,3.4-10.8c1.2-3.3,3.2-6.5,6.2-8.5"/>
			<path class="st29" d="M1652.5,468.7c1.6,7.4,8.9,13.2,16.5,13c7.6-0.2,13.6-6.5,15.9-13.7c3.7-12.1,0-21.6-4-21
				c-6.4,0.8-3.9,24.4,0.5,28.6c4.4,4.2,11.8,4.1,16.5,0.3c7-5.6,14.9-19.8,14.1-31.4c-0.3-3.7-4.5-16-9.7-8.8
				c-6.4,10.5-2.2,19.4,6.1,34.2c1.4,2.4,4.3,4.5,6.8,5.7c4.3,2,9.6-0.1,12.6-3.8c3-3.6,5.4-9.1,6.8-13.6c1.6-5-1.1-13.5-5-6.3
				c-3.6,6.4-0.2,21.9,9.2,23.5c9.4,1.6,19-6,20.9-15.3c0.8-4,2.2-22.6-2.4-21.9c-6.5,0.7-2.9,26,2.5,31.2c2,1.9,4.6,3.3,7.3,3.1
				c3.8-0.2,6.7-3.4,8.3-6.8c1.6-3.4,2.1-7.2,3.4-10.8c1.2-3.3,3.2-6.5,6.2-8.5"/>
		</g>
		<g>
			<path class="st29" d="M1291.8,570.4c1.6,7.4,8.9,13.2,16.5,13c7.6-0.2,13.6-6.5,15.9-13.7c3.7-12.1,0-21.6-4-21
				c-6.4,0.8-3.9,24.4,0.5,28.6s11.8,4.1,16.5,0.3c7-5.6,14.9-19.8,14.1-31.4c-0.3-3.7-4.5-16-9.7-8.8c-6.4,10.5-2.2,19.4,6.1,34.2
				c1.4,2.4,4.3,4.5,6.8,5.7c4.3,2,9.6-0.1,12.6-3.8c3-3.6,5.4-9.1,6.8-13.6c1.6-5-1.1-13.5-5-6.3c-3.6,6.4-0.2,21.9,9.2,23.5
				s19-6,20.9-15.3c0.8-4,2.2-22.6-2.4-21.9c-6.5,0.7-2.9,26,2.5,31.2c2,1.9,4.6,3.3,7.3,3.1c3.8-0.2,6.7-3.4,8.3-6.8
				c1.6-3.4,2.1-7.2,3.4-10.8c1.2-3.3,3.2-6.5,6.2-8.5"/>
			<path class="st29" d="M1436.3,554.6c1.6,7.4,8.9,13.2,16.5,13s13.6-6.5,15.9-13.7c3.7-12.1,0-21.6-4-21
				c-6.4,0.8-3.9,24.4,0.5,28.6c4.4,4.2,11.8,4.1,16.5,0.3c7-5.6,14.9-19.8,14.1-31.4c-0.3-3.7-4.5-16-9.7-8.8
				c-6.4,10.5-2.2,19.4,6.1,34.2c1.4,2.4,4.3,4.5,6.8,5.7c4.3,2,9.6-0.1,12.6-3.8c3-3.6,5.4-9.1,6.8-13.6c1.6-5-1.1-13.5-5-6.3
				c-3.6,6.4-0.2,21.9,9.2,23.5c9.4,1.6,19-6,20.9-15.3c0.8-4,2.2-22.6-2.4-21.9c-6.5,0.7-2.9,26,2.5,31.2c2,1.9,4.6,3.3,7.3,3.1
				c3.8-0.2,6.7-3.4,8.3-6.8c1.6-3.4,2.1-7.2,3.4-10.8c1.2-3.3,3.2-6.5,6.2-8.5"/>
			<path class="st29" d="M1732.5,522.2c1.6,7.4,8.9,13.2,16.5,13c7.6-0.2,13.6-6.5,15.9-13.7c3.7-12.1,0-21.6-4-21
				c-6.4,0.8-3.9,24.4,0.5,28.6c4.4,4.2,11.8,4.1,16.5,0.3c7-5.6,14.9-19.8,14.1-31.4c-0.3-3.7-4.5-16-9.7-8.8
				c-6.4,10.5-2.2,19.4,6.1,34.2c1.4,2.4,4.3,4.5,6.8,5.7c4.3,2,9.6-0.1,12.6-3.8c3-3.6,5.4-9.1,6.8-13.6c1.6-5-1.1-13.5-5-6.3
				c-3.6,6.4-0.2,21.9,9.2,23.5c9.4,1.6,19-6,20.9-15.3c0.8-4,2.2-22.6-2.4-21.9c-6.5,0.7-2.9,26,2.5,31.2c2,1.9,4.6,3.3,7.3,3.1
				c3.8-0.2,6.7-3.4,8.3-6.8c1.6-3.4,2.1-7.2,3.4-10.8c1.2-3.3,3.2-6.5,6.2-8.5"/>
			<path class="st29" d="M1580.9,538.8c1.6,7.4,8.9,13.2,16.5,13c7.6-0.2,13.6-6.5,15.9-13.7c3.7-12.1,0-21.6-4-21
				c-6.4,0.8-3.9,24.4,0.5,28.6c4.4,4.2,11.8,4.1,16.5,0.3c7-5.6,14.9-19.8,14.1-31.4c-0.3-3.7-4.5-16-9.7-8.8
				c-6.4,10.5-2.2,19.4,6.1,34.2c1.4,2.4,4.3,4.5,6.8,5.7c4.3,2,9.6-0.1,12.6-3.8c3-3.6,5.4-9.1,6.8-13.6c1.6-5-1.1-13.5-5-6.3
				c-3.6,6.4-0.2,21.9,9.2,23.5c9.4,1.6,19-6,20.9-15.3c0.8-4,2.2-22.6-2.4-21.9c-6.5,0.7-2.9,26,2.5,31.2c2,1.9,4.6,3.3,7.3,3.1
				c3.8-0.2,6.7-3.4,8.3-6.8c1.6-3.4,2.1-7.2,3.4-10.8c1.2-3.3,3.2-6.5,6.2-8.5"/>
		</g>
		<g>
			<path class="st29" d="M1376.9,623.4c1.6,7.4,8.9,13.2,16.5,13c7.6-0.2,13.6-6.5,15.9-13.7c3.7-12.1,0-21.6-4-21
				c-6.4,0.8-3.9,24.4,0.5,28.6c4.4,4.2,11.8,4.1,16.5,0.3c7-5.6,14.9-19.8,14.1-31.4c-0.3-3.7-4.5-16-9.7-8.8
				c-6.4,10.5-2.2,19.4,6.1,34.2c1.4,2.4,4.3,4.5,6.8,5.7c4.3,2,9.6-0.1,12.6-3.8c3-3.6,5.4-9.1,6.8-13.6c1.6-5-1.1-13.5-5-6.3
				c-3.6,6.4-0.2,21.9,9.2,23.5c9.4,1.6,19-6,20.9-15.3c0.8-4,2.2-22.6-2.4-21.9c-6.5,0.7-2.9,26,2.5,31.2c2,1.9,4.6,3.3,7.3,3.1
				c3.8-0.2,6.7-3.4,8.3-6.8c1.6-3.4,2.1-7.2,3.4-10.8c1.2-3.3,3.2-6.5,6.2-8.5"/>
			<path class="st29" d="M1521.4,607.6c1.6,7.4,8.9,13.2,16.5,13c7.6-0.2,13.6-6.5,15.9-13.7c3.7-12.1,0-21.6-4-21
				c-6.4,0.8-3.9,24.4,0.5,28.6c4.4,4.2,11.8,4.1,16.5,0.3c7-5.6,14.9-19.8,14.1-31.4c-0.3-3.7-4.5-16-9.7-8.8
				c-6.4,10.5-2.2,19.4,6.1,34.2c1.4,2.4,4.3,4.5,6.8,5.7c4.3,2,9.6-0.1,12.6-3.8c3-3.6,5.4-9.1,6.8-13.6c1.6-5-1.1-13.5-5-6.3
				c-3.6,6.4-0.2,21.9,9.2,23.5c9.4,1.6,19-6,20.9-15.3c0.8-4,2.2-22.6-2.4-21.9c-6.5,0.7-2.9,26,2.5,31.2c2,1.9,4.6,3.3,7.3,3.1
				c3.8-0.2,6.7-3.4,8.3-6.8c1.6-3.4,2.1-7.2,3.4-10.8c1.2-3.3,3.2-6.5,6.2-8.5"/>
			<path class="st29" d="M1666,591.8c1.6,7.4,8.9,13.2,16.5,13c7.6-0.2,13.6-6.5,15.9-13.7c3.7-12.1,0-21.6-4-21
				c-6.4,0.8-3.9,24.4,0.5,28.6c4.4,4.2,11.8,4.1,16.5,0.3c7-5.6,14.9-19.8,14.1-31.4c-0.3-3.7-4.5-16-9.7-8.8
				c-6.4,10.5-2.2,19.4,6.1,34.2c1.4,2.4,4.3,4.5,6.8,5.7c4.3,2,9.6-0.1,12.6-3.8c3-3.6,5.4-9.1,6.8-13.6c1.6-5-1.1-13.5-5-6.3
				c-3.6,6.4-0.2,21.9,9.2,23.5c9.4,1.6,19-6,20.9-15.3c0.8-4,2.2-22.6-2.4-21.9c-6.5,0.7-2.9,26,2.5,31.2c2,1.9,4.6,3.3,7.3,3.1
				c3.8-0.2,6.7-3.4,8.3-6.8c1.6-3.4,2.1-7.2,3.4-10.8c1.2-3.3,3.2-6.5,6.2-8.5"/>
		</g>
	</g>
	<g>
		<g>
			<path class="st29" d="M2074.9,623.8c1.6,7.4,8.9,13.2,16.5,13c7.6-0.2,13.6-6.5,15.9-13.7c3.7-12.1,0-21.6-4-21
				c-6.4,0.8-3.9,24.4,0.5,28.6c4.4,4.2,11.8,4.1,16.5,0.3c7-5.6,14.9-19.8,14.1-31.4c-0.3-3.7-4.5-16-9.7-8.8
				c-6.4,10.5-2.2,19.4,6.1,34.2c1.4,2.4,4.3,4.5,6.8,5.7c4.3,2,9.6-0.1,12.6-3.8c3-3.6,5.4-9.1,6.8-13.6c1.6-5-1.1-13.5-5-6.3
				c-3.6,6.4-0.2,21.9,9.2,23.5c9.4,1.6,19-6,20.9-15.3c0.8-4,2.2-22.6-2.4-21.9c-6.5,0.7-2.9,26,2.5,31.2c2,1.9,4.6,3.3,7.3,3.1
				c3.8-0.2,6.7-3.4,8.3-6.8s2.1-7.2,3.4-10.8c1.2-3.3,3.2-6.5,6.2-8.5"/>
			<path class="st29" d="M2219.5,608c1.6,7.4,8.9,13.2,16.5,13c7.6-0.2,13.6-6.5,15.9-13.7c3.7-12.1,0-21.6-4-21
				c-6.4,0.8-3.9,24.4,0.5,28.6c4.4,4.2,11.8,4.1,16.5,0.3c7-5.6,14.9-19.8,14.1-31.4c-0.3-3.7-4.5-16-9.7-8.8
				c-6.4,10.5-2.2,19.4,6.1,34.2c1.4,2.4,4.3,4.5,6.8,5.7c4.3,2,9.6-0.1,12.6-3.8c3-3.6,5.4-9.1,6.8-13.6c1.6-5-1.1-13.5-5-6.3
				c-3.6,6.4-0.2,21.9,9.2,23.5c9.4,1.6,19-6,20.9-15.3c0.8-4,2.2-22.6-2.4-21.9c-6.5,0.7-2.9,26,2.5,31.2c2,1.9,4.6,3.3,7.3,3.1
				c3.8-0.2,6.7-3.4,8.3-6.8s2.1-7.2,3.4-10.8c1.2-3.3,3.2-6.5,6.2-8.5"/>
		</g>
	</g>
	<path class="st7" d="M1653.4,1235.7c10.6,0,19.1-8.6,19.1-19.1c0,10.6,8.6,19.1,19.1,19.1c-10.6,0-19.1,8.6-19.1,19.1
		C1672.6,1244.2,1664,1235.7,1653.4,1235.7z"/>
	<path class="st7" d="M2287,726.6c10.6,0,19.1-8.6,19.1-19.1c0,10.6,8.6,19.1,19.1,19.1c-10.6,0-19.1,8.6-19.1,19.1
		C2306.1,735.2,2297.5,726.6,2287,726.6z"/>
	<path class="st7" d="M1210.3,1187.5c10.6,0,19.1-8.6,19.1-19.1c0,10.6,8.6,19.1,19.1,19.1c-10.6,0-19.1,8.6-19.1,19.1
		C1229.4,1196,1220.8,1187.5,1210.3,1187.5z"/>
	<path class="st7" d="M1500.4,913.4c16.5,0,29.9-13.4,29.9-29.9c0,16.5,13.4,29.9,29.9,29.9c-16.5,0-29.9,13.4-29.9,29.9
		C1530.3,926.8,1516.9,913.4,1500.4,913.4z"/>
	<path class="st7" d="M2527.2,981.5c16.5,0,29.9-13.4,29.9-29.9c0,16.5,13.4,29.9,29.9,29.9c-16.5,0-29.9,13.4-29.9,29.9
		C2557.2,994.9,2543.8,981.5,2527.2,981.5z"/>
</g>
</svg>
